<?xml version="1.0" encoding="utf-8"?>
<!-- Generator: Adobe Illustrator 16.0.0, SVG Export Plug-In . SVG Version: 6.00 Build 0)  -->
<!DOCTYPE svg PUBLIC "-//W3C//DTD SVG 1.1//EN" "http://www.w3.org/Graphics/SVG/1.1/DTD/svg11.dtd">
<svg version="1.1" id="Layer_1" xmlns="http://www.w3.org/2000/svg" xmlns:xlink="http://www.w3.org/1999/xlink" x="0px" y="0px"
	 width="551.534px" height="144px" viewBox="0 0 551.534 144" enable-background="new 0 0 551.534 144" xml:space="preserve">
<g>
	<g>
		<path fill="#004994" d="M6.143,17.256c0-5.118,3.915-9.033,9.033-9.033s9.183,3.915,9.183,9.033v35.379
			c5.872-8.28,14.152-14.904,27.1-14.904c18.668,0,36.886,14.752,36.886,41.25v0.303c0,26.346-18.066,41.25-36.886,41.25
			c-13.249,0-21.527-6.625-27.1-14.002v4.063c0,4.969-4.064,9.032-9.183,9.032c-4.969,0-9.033-4.063-9.033-9.032V17.256z
			 M73.423,79.284v-0.303c0-15.356-10.388-25.442-22.731-25.442c-12.345,0-23.186,10.237-23.186,25.442v0.303
			c0,15.204,10.84,25.442,23.186,25.442C63.187,104.728,73.423,94.939,73.423,79.284z"/>
		<path fill="#004994" d="M101.885,95.995v-0.304c0-17.163,13.397-25.593,32.818-25.593c8.882,0,15.206,1.355,21.378,3.315v-1.959
			c0-11.291-6.925-17.312-19.722-17.312c-6.925,0-12.646,1.204-17.614,3.161c-1.055,0.301-1.958,0.451-2.86,0.451
			c-4.216,0-7.679-3.313-7.679-7.526c0-3.313,2.259-6.172,4.97-7.228c7.526-2.859,15.205-4.666,25.593-4.666
			c11.894,0,20.775,3.162,26.348,8.883c5.871,5.72,8.582,14.15,8.582,24.539v39.145c0,4.967-3.916,8.73-8.884,8.73
			c-5.269,0-8.881-3.611-8.881-7.678v-3.011c-5.42,6.472-13.701,11.593-25.896,11.593
			C115.133,120.534,101.885,111.954,101.885,95.995z M154.583,90.272v-5.419c-4.667-1.806-10.839-3.161-18.065-3.161
			c-11.742,0-18.667,4.969-18.667,13.248v0.3c0,7.679,6.773,12.046,15.506,12.046C145.4,107.286,154.583,100.359,154.583,90.272z"/>
		<path fill="#004994" d="M191.455,111.503v-0.305c0-3.462,1.205-5.722,4.064-8.73l42.305-48.176h-37.486
			c-4.215,0-7.527-3.313-7.527-7.377c0-4.215,3.313-7.526,7.527-7.526h52.393c4.969,0,8.732,3.011,8.732,7.228v0.449
			c0,3.463-1.205,5.723-3.916,8.732l-42.455,48.178h39.143c4.217,0,7.527,3.313,7.527,7.527c0,4.063-3.311,7.377-7.527,7.377
			h-53.896C195.218,118.878,191.455,115.718,191.455,111.503z"/>
		<path fill="#004994" d="M274.554,95.995v-0.304c0-17.163,13.398-25.593,32.818-25.593c8.883,0,15.205,1.355,21.379,3.315v-1.959
			c0-11.291-6.926-17.312-19.723-17.312c-6.926,0-12.646,1.204-17.615,3.161c-1.053,0.301-1.957,0.451-2.857,0.451
			c-4.217,0-7.682-3.313-7.682-7.526c0-3.313,2.262-6.172,4.971-7.228c7.525-2.859,15.205-4.666,25.592-4.666
			c11.895,0,20.777,3.162,26.348,8.883c5.871,5.72,8.582,14.15,8.582,24.539v39.145c0,4.967-3.916,8.73-8.883,8.73
			c-5.27,0-8.883-3.611-8.883-7.678v-3.011c-5.42,6.472-13.699,11.593-25.896,11.593
			C287.802,120.534,274.554,111.954,274.554,95.995z M327.253,90.272v-5.419c-4.668-1.806-10.84-3.161-18.064-3.161
			c-11.744,0-18.67,4.969-18.67,13.248v0.3c0,7.679,6.775,12.046,15.506,12.046C318.07,107.286,327.253,100.359,327.253,90.272z"/>
		<path fill="#004994" d="M368.189,47.667c0-5.119,3.914-9.184,9.031-9.184c5.119,0,9.186,4.064,9.186,9.184v8.131
			c4.215-9.938,12.045-17.465,20.023-17.465c5.723,0,9.033,3.764,9.033,9.033c0,4.817-3.162,7.979-7.229,8.731
			c-12.945,2.257-21.83,12.194-21.83,31.014v23.487c0,4.967-4.064,9.031-9.186,9.031c-4.969,0-9.031-3.912-9.031-9.031V47.667
			H368.189z"/>
	</g>
	
		<radialGradient id="SVGID_1_" cx="876.2847" cy="1757.0117" r="69.8531" gradientTransform="matrix(1.4678 -0.0084 0.0011 0.1819 -826.2551 -185.3588)" gradientUnits="userSpaceOnUse">
		<stop  offset="0" style="stop-color:#000000;stop-opacity:0.5"/>
		<stop  offset="0.0874" style="stop-color:#0D0D0D;stop-opacity:0.4555"/>
		<stop  offset="0.2479" style="stop-color:#2E2E2E;stop-opacity:0.3738"/>
		<stop  offset="0.4638" style="stop-color:#646464;stop-opacity:0.2639"/>
		<stop  offset="0.7235" style="stop-color:#AEAEAE;stop-opacity:0.1317"/>
		<stop  offset="0.9821" style="stop-color:#FFFFFF;stop-opacity:0"/>
	</radialGradient>
	<path opacity="0.8" fill="url(#SVGID_1_)" enable-background="new    " d="M570.404,122.171
		c0.041,7.174-48.021,13.252-107.35,13.592c-59.324,0.336-107.455-5.203-107.494-12.365c-0.043-7.174,48.023-13.254,107.346-13.594
		C522.232,109.47,570.361,115.007,570.404,122.171z"/>
	<g>
		<g>
			<g>
				<path fill="#00539B" d="M415.97,96.136l18.756,15.672c1.051,0.875,3.014,1.773,4.359,1.998l59.146,9.184
					c1.35,0.225,3.354-1.135,3.576-2.482l9.383-60.435c0.223-1.352-0.695-2.637-2.045-2.86L450.142,47.11
					c-1.352-0.225-3.496-0.007-4.773,0.485l-22.813,8.778c-1.271,0.492-2.502,2-2.727,3.346l-5.031,32.423
					C414.576,93.489,414.921,95.255,415.97,96.136z M430.205,87.173c2.348,0.391,3.936,2.611,3.545,4.959
					c-0.389,2.341-2.604,3.932-4.953,3.541c-2.35-0.389-3.938-2.604-3.549-4.955C425.638,88.37,427.853,86.782,430.205,87.173z"/>
			</g>
			<g>
				<path fill="#ED6B26" d="M415.97,96.136l18.756,15.672c1.051,0.875,3.014,1.773,4.359,1.998l59.146,9.184
					c1.35,0.225,3.354-1.135,3.576-2.482l9.383-60.435c0.223-1.352-0.695-2.637-2.045-2.86L450.142,47.11
					c-1.352-0.225-3.496-0.007-4.773,0.485l-22.813,8.778c-1.271,0.492-2.502,2-2.727,3.346l-5.031,32.423
					C414.576,93.489,414.921,95.255,415.97,96.136z M430.205,87.173c2.348,0.391,3.936,2.611,3.545,4.959
					c-0.389,2.341-2.604,3.932-4.953,3.541c-2.35-0.389-3.938-2.604-3.549-4.955C425.638,88.37,427.853,86.782,430.205,87.173z"/>
			</g>
		</g>
		<g opacity="0.3">
			<g>
				<path fill="#00539B" d="M509.146,57.209l-59.002-10.102c-1.352-0.225-3.498-0.007-4.773,0.484l-22.813,8.779
					c-1.273,0.492-2.5,2-2.727,3.346l-5.029,32.423c-0.227,1.349,0.117,3.112,1.168,3.995l18.756,15.672
					c1.051,0.875,3.014,1.771,4.359,1.998l59.146,9.184c1.35,0.225,3.354-1.137,3.576-2.482l9.383-60.436
					C511.414,58.719,510.498,57.434,509.146,57.209z M429.593,96.146c-2.609,0-4.725-2.116-4.725-4.726s2.115-4.726,4.725-4.726
					c2.607,0,4.727,2.115,4.727,4.726C434.32,94.032,432.203,96.146,429.593,96.146z"/>
			</g>
			<g>
				
					<radialGradient id="SVGID_2_" cx="883.7847" cy="364.8105" r="43.4239" gradientTransform="matrix(1 0 0 1 -420.8047 -279.7949)" gradientUnits="userSpaceOnUse">
					<stop  offset="0" style="stop-color:#FFFFFF"/>
					<stop  offset="0.1353" style="stop-color:#FFFCFB"/>
					<stop  offset="0.2713" style="stop-color:#FEF4EF"/>
					<stop  offset="0.4077" style="stop-color:#FCE6DB"/>
					<stop  offset="0.5444" style="stop-color:#FAD3BE"/>
					<stop  offset="0.6815" style="stop-color:#F7BA9A"/>
					<stop  offset="0.8188" style="stop-color:#F39C6D"/>
					<stop  offset="0.9539" style="stop-color:#EF7839"/>
					<stop  offset="1" style="stop-color:#ED6B26"/>
				</radialGradient>
				<path fill="url(#SVGID_2_)" d="M509.146,57.209l-59.002-10.102c-1.352-0.225-3.498-0.007-4.773,0.484l-22.813,8.779
					c-1.273,0.492-2.5,2-2.727,3.346l-5.029,32.423c-0.227,1.349,0.117,3.112,1.168,3.995l18.756,15.672
					c1.051,0.875,3.014,1.771,4.359,1.998l59.146,9.184c1.35,0.225,3.354-1.137,3.576-2.482l9.383-60.436
					C511.414,58.719,510.498,57.434,509.146,57.209z M429.593,96.146c-2.609,0-4.725-2.116-4.725-4.726s2.115-4.726,4.725-4.726
					c2.607,0,4.727,2.115,4.727,4.726C434.32,94.032,432.203,96.146,429.593,96.146z"/>
			</g>
		</g>
		
			<radialGradient id="SVGID_3_" cx="992.7495" cy="257.498" r="5.4419" gradientTransform="matrix(-0.9106 -0.4133 0.4133 -0.9106 1227.0713 736.204)" gradientUnits="userSpaceOnUse">
			<stop  offset="0.6182" style="stop-color:#A3A5A5"/>
			<stop  offset="0.8485" style="stop-color:#CFCFCF"/>
			<stop  offset="1" style="stop-color:#797D7F"/>
		</radialGradient>
		<path fill="url(#SVGID_3_)" d="M428.609,96.79c2.963,0.492,5.766-1.511,6.258-4.478c0.49-2.962-1.516-5.767-4.48-6.258
			c-2.961-0.492-5.766,1.514-6.256,4.481C423.638,93.497,425.646,96.302,428.609,96.79z M430.205,87.173
			c2.348,0.391,3.936,2.611,3.545,4.959c-0.389,2.341-2.604,3.932-4.953,3.541c-2.35-0.389-3.938-2.604-3.549-4.955
			C425.638,88.37,427.853,86.782,430.205,87.173z"/>
		
			<linearGradient id="SVGID_4_" gradientUnits="userSpaceOnUse" x1="1142.8999" y1="246.2246" x2="1142.8688" y2="240.57" gradientTransform="matrix(-0.9865 -0.1635 0.1635 -0.9865 1517.5138 516.1874)">
			<stop  offset="0.0111" style="stop-color:#EDEDED"/>
			<stop  offset="0.9091" style="stop-color:#4A4D4F"/>
		</linearGradient>
		<path fill="url(#SVGID_4_)" d="M430.287,86.682c-2.35-0.388-4.566,1.2-4.959,3.547c-0.014,0.081-0.02,0.167-0.025,0.248
			c0.498-2.211,2.639-3.679,4.902-3.304s3.816,2.451,3.572,4.705c0.02-0.078,0.041-0.154,0.053-0.238
			C434.218,89.292,432.63,87.071,430.287,86.682z"/>
		<path fill="#00539B" d="M427.779,90.087c-0.066-0.316-0.346-1.074-1.49-1.535c-0.615,0.561-0.842,1.421-0.842,1.421
			c0.611,0.161,0.725,0.388,0.74,0.452c0.049,0.229-0.486,1.063-2.102,1.777c-0.902,0.396-3.488,0.987-6.91,0.987
			c-2.205,0-4.369-0.251-6.354-0.731c0.471-0.143,0.943-0.285,1.424-0.436c0.432-0.13,0.957-0.255,1.479-0.382
			c0.426-0.101,0.838-0.201,1.213-0.304c0.002-0.131,0.229-1.676,0.252-1.762c-0.064-0.016-0.133-0.022-0.197-0.002
			c-0.381,0.106-0.811,0.223-1.246,0.338c-0.695,0.188-1.408,0.381-2.004,0.564c-1.313,0.402-2.549,0.783-3.758,1.088
			c-0.426-0.16-0.98-0.367-1.646-0.611c-5.104-1.889-18.668-6.904-20.449-10.668c-0.188-0.394-0.684-0.572-1.092-0.381
			c-0.4,0.199-0.568,0.688-0.379,1.079c1.811,3.817,13.219,8.257,19.35,10.642c0.361,0.143,0.707,0.275,1.021,0.398
			c-5.227,0.086-15.621-1.604-18.188-4.208c-0.303-0.313-0.84-0.319-1.158-0.01c-0.152,0.155-0.238,0.358-0.238,0.577
			c-0.002,0.216,0.082,0.421,0.232,0.572c3.111,3.157,12.963,4.629,18.643,4.629c1.564,0,2.871-0.108,3.793-0.313
			c1.332,0.496,2.791,0.882,4.338,1.149c1.578,0.271,3.238,0.408,4.939,0.408c3.463,0,6.309-0.572,7.592-1.138
			c1.752-0.771,2.867-1.837,3.051-2.931C427.832,90.524,427.826,90.298,427.779,90.087z"/>
	</g>
	<g>
		<path fill="#FFFFFF" d="M451.177,61.549c0.295-1.9,2.035-3.223,3.994-2.92c1.957,0.307,3.271,2.104,2.979,4.004l-5.547,35.721
			c-0.303,1.959-2.09,3.213-4.049,2.912c-1.902-0.295-3.225-2.033-2.924-3.994L451.177,61.549z"/>
		<path fill="#FFFFFF" d="M488.484,103.927c-0.295,1.898-2.09,3.215-4.051,2.91c-1.902-0.297-3.281-2.041-2.979-4.002l0.242-1.56
			c-2.404,2.58-5.615,4.617-10.336,3.884c-6.857-1.063-10.115-6.291-9.018-13.379l2.516-16.188c0.303-1.959,2.1-3.273,3.998-2.979
			c1.961,0.306,3.273,2.104,2.971,4.063l-2.189,14.113c-0.734,4.725,1.217,7.741,5.359,8.385c4.033,0.629,7.287-1.699,8.021-6.422
			l2.174-14c0.305-1.957,2.1-3.274,4.059-2.969c1.902,0.293,3.273,2.1,2.973,4.057L488.484,103.927z"/>
	</g>
	
		<radialGradient id="SVGID_5_" cx="869.9937" cy="326.8145" r="27.5312" gradientTransform="matrix(1 0 0 1 -420.8047 -279.7949)" gradientUnits="userSpaceOnUse">
		<stop  offset="0" style="stop-color:#FFFFFF"/>
		<stop  offset="1" style="stop-color:#FFFFFF;stop-opacity:0"/>
	</radialGradient>
	<path opacity="0.75" fill="url(#SVGID_5_)" enable-background="new    " d="M421.658,47.022c0-15.207,12.326-27.533,27.533-27.533
		c15.205,0,27.529,12.326,27.529,27.533c0,15.202-12.324,27.53-27.529,27.53C433.984,74.552,421.658,62.225,421.658,47.022z"/>
</g>
</svg>
