<?xml version="1.0" encoding="utf-8"?>
<!-- Generator: Adobe Illustrator 16.0.3, SVG Export Plug-In . SVG Version: 6.00 Build 0)  -->
<!DOCTYPE svg PUBLIC "-//W3C//DTD SVG 1.1//EN" "http://www.w3.org/Graphics/SVG/1.1/DTD/svg11.dtd">
<svg version="1.1" id="Layer_1" xmlns="http://www.w3.org/2000/svg" xmlns:xlink="http://www.w3.org/1999/xlink" x="0px" y="0px"
	 width="32px" height="32px" viewBox="0 0 32 32" enable-background="new 0 0 32 32" xml:space="preserve">
<path fill="#818181" d="M29.153,7.728c0.032-0.102,0.06-0.214,0.086-0.363c0.026-0.16,0.037-0.332,0.032-0.527
	c0-0.022-0.001-0.045-0.001-0.057c-0.003-0.058-0.007-0.119-0.012-0.176c-0.005-0.048-0.011-0.094-0.018-0.149L29.229,6.38
	c-0.009-0.063-0.019-0.124-0.032-0.185c0,0-0.018-0.075-0.018-0.076c-0.014-0.059-0.028-0.116-0.041-0.165
	c-0.012-0.043-0.025-0.087-0.04-0.132l-0.021-0.066L29.062,5.7c-0.004-0.008-0.018-0.054-0.02-0.061
	c-0.049-0.138-0.112-0.296-0.187-0.455c-0.002-0.006-0.037-0.083-0.04-0.089l-0.034-0.072c-0.031-0.065-0.085-0.173-0.177-0.334
	c-0.054-0.096-0.118-0.204-0.197-0.326l-0.063-0.097c-0.057-0.084-0.119-0.174-0.197-0.284l-0.05-0.071
	c-0.092-0.123-0.194-0.255-0.312-0.397c-0.065-0.079-0.13-0.156-0.2-0.237c-0.178-0.202-0.372-0.404-0.624-0.646
	c-0.191-0.186-0.512-0.477-0.942-0.804l-0.134-0.101l-0.06-0.042c-0.23-0.169-0.479-0.336-0.731-0.493
	c-0.271-0.168-0.501-0.298-0.694-0.4c-0.229-0.122-0.513-0.044-0.648,0.176c-0.119,0.192-0.261,0.389-0.429,0.6
	c-0.086,0.106-0.126,0.292-0.106,0.427c-0.055,0.221,0.05,0.449,0.252,0.556c0.185,0.095,0.373,0.199,0.572,0.322
	c0.202,0.127,0.416,0.273,0.634,0.43l0.092,0.068c0.059,0.044,0.118,0.091,0.206,0.16l0.109,0.089
	c0.065,0.052,0.128,0.105,0.196,0.166l0.093,0.08c0.28,0.252,0.546,0.522,0.791,0.807l0.091,0.105
	c0.049,0.06,0.099,0.122,0.158,0.197l0.158,0.215c0.045,0.063,0.092,0.127,0.132,0.188c0.027,0.043,0.054,0.086,0.094,0.153
	l0.056,0.091c0.113,0.204,0.207,0.396,0.277,0.571l0.033,0.09c0.013,0.04,0.028,0.081,0.041,0.122
	c0.013,0.046,0.024,0.089,0.042,0.165l0.012,0.053c0.009,0.048,0.017,0.095,0.026,0.181l0.002,0.178c0.001,0-0.004,0.049-0.005,0.05
	l-0.016,0.082c-0.011,0.036-0.021,0.068-0.022,0.071s-0.038,0.071-0.039,0.073c-0.04,0.052-0.073,0.109-0.098,0.17
	C27.102,7.429,27.102,7.43,27.1,7.432l-0.036,0.057c-0.01,0.013-0.032,0.041-0.101,0.098c0,0.001-0.066,0.044-0.073,0.049
	c-0.026-0.069-0.05-0.132-0.085-0.211l-0.041-0.094c-0.043-0.099-0.095-0.204-0.168-0.353c-0.002-0.003-0.021-0.041-0.021-0.045
	c-0.071-0.138-0.152-0.286-0.227-0.413c-0.008-0.013-0.015-0.025-0.021-0.038c-0.05-0.086-0.101-0.172-0.154-0.26
	c-0.145-0.232-0.307-0.465-0.513-0.739c-0.158-0.214-0.428-0.553-0.806-0.953c-0.065-0.069-0.105-0.108-0.104-0.108l-0.054-0.053
	c-0.206-0.211-0.427-0.418-0.648-0.611c-0.235-0.207-0.469-0.396-0.694-0.564c-0.159-0.119-0.282-0.203-0.364-0.255
	c-0.091-0.059-0.188-0.122-0.305-0.195c-0.007-0.005-0.047-0.03-0.055-0.036c-0.093-0.056-0.218-0.129-0.358-0.206
	c-0.001,0-0.043-0.023-0.044-0.024c-0.068-0.038-0.144-0.075-0.237-0.123l-0.3-0.14c-0.079-0.035-0.151-0.065-0.264-0.111
	l-0.085-0.033c-0.126-0.048-0.238-0.086-0.332-0.115l-0.133-0.043c-0.026-0.008-0.165-0.05-0.369-0.093
	c-0.008-0.002-0.016-0.004-0.023-0.006c-0.131-0.026-0.288-0.053-0.456-0.071l-0.131-0.013c-0.147-0.012-0.271-0.011-0.337-0.006
	c-0.011,0-0.025-0.001-0.038-0.001v0c-0.003,0-0.005,0-0.008,0c-0.019,0-0.039,0-0.054,0.002l0,0c-0.003,0-0.006,0-0.008,0
	c-0.098,0.006-0.188,0.015-0.3,0.029L19.043,1.77c-0.003,0-0.094,0.015-0.236,0.052c-0.071,0.02-0.154,0.046-0.244,0.08
	c-0.063,0.024-0.12,0.049-0.174,0.074c-0.011,0.005-0.056,0.026-0.065,0.03c-0.042,0.021-0.08,0.042-0.146,0.08
	c-0.024,0.015-0.049,0.029-0.053,0.033c-0.036,0.021-0.068,0.042-0.081,0.052c-0.03,0.021-0.063,0.044-0.095,0.066
	c-0.034,0.027-0.064,0.051-0.112,0.092c-0.044,0.037-0.08,0.07-0.114,0.102c-0.105,0.101-0.179,0.229-0.224,0.367l-0.021,0.048
	l-0.115,0.367L17.35,3.28c-0.008,0.03-0.014,0.061-0.019,0.094c-0.006,0.028-0.008,0.053-0.011,0.087
	c-0.007,0.057-0.014,0.111-0.018,0.178c-0.004,0.096-0.004,0.185-0.001,0.258c0.001,0.004,0.001,0.006,0.001,0.009
	c0.006,0.13,0.019,0.218,0.027,0.269l0.016,0.097c0.012,0.069,0.028,0.142,0.045,0.205c-0.093,0.006-0.179,0.014-0.286,0.028
	l-0.11,0.016c-0.001,0-0.093,0.015-0.235,0.053c-0.069,0.02-0.154,0.045-0.241,0.078c-0.064,0.023-0.123,0.05-0.18,0.076
	c-0.009,0.005-0.053,0.025-0.063,0.03c-0.042,0.021-0.078,0.042-0.147,0.081c-0.003,0.002-0.048,0.028-0.05,0.03
	c-0.037,0.022-0.068,0.043-0.08,0.053c-0.032,0.021-0.064,0.044-0.094,0.067c-0.036,0.026-0.065,0.051-0.114,0.091
	c-0.043,0.037-0.08,0.069-0.114,0.102c-0.123,0.119-0.204,0.273-0.242,0.44l-0.103,0.28c-0.002,0.004-0.014,0.055-0.015,0.059
	l-0.014,0.068c-0.007,0.03-0.012,0.06-0.02,0.103c-0.004,0.026-0.007,0.051-0.009,0.081c-0.006,0.056-0.013,0.113-0.017,0.179
	c-0.004,0.077-0.005,0.149-0.002,0.234c0,0.012,0,0.023,0.001,0.034c0.005,0.128,0.019,0.216,0.019,0.218l0.009,0.055l0.014,0.088
	c0.015,0.083,0.034,0.174,0.057,0.257c0.001,0.009,0.008,0.032,0.014,0.051c-0.015,0-0.028-0.002-0.038-0.002
	c-0.007,0-0.042,0.003-0.048,0.003c-0.099,0.006-0.189,0.014-0.28,0.026l-0.058,0.01c-0.03,0.003-0.063,0.007-0.074,0.009
	c-0.001,0-0.087,0.014-0.21,0.046c-0.009,0.002-0.018,0.004-0.025,0.006c-0.071,0.019-0.155,0.046-0.245,0.08
	c-0.063,0.024-0.12,0.049-0.177,0.075c-0.012,0.006-0.047,0.021-0.058,0.027c-0.005,0.003-0.012,0.006-0.017,0.009
	c-0.037,0.019-0.072,0.039-0.133,0.074l-0.057,0.033c-0.035,0.021-0.065,0.042-0.081,0.055l-0.089,0.063
	c-0.036,0.027-0.066,0.053-0.114,0.092c-0.042,0.036-0.08,0.07-0.114,0.102c-0.104,0.101-0.176,0.225-0.22,0.361l-0.008,0.018
	c-0.003,0.004-0.019,0.046-0.021,0.052l-0.11,0.351l-0.013,0.061c-0.007,0.032-0.014,0.065-0.021,0.112
	c-0.004,0.023-0.007,0.045-0.009,0.076c-0.007,0.057-0.013,0.114-0.017,0.177c-0.004,0.082-0.004,0.159-0.001,0.245
	c-0.001,0.009,0,0.019,0,0.027c0.007,0.127,0.019,0.215,0.028,0.265c0.005,0.035,0.011,0.068,0.015,0.093
	c0.012,0.066,0.028,0.139,0.046,0.209c-0.091,0.006-0.178,0.014-0.264,0.025l-0.079,0.011c-0.003,0-0.049,0.007-0.053,0.008
	c-0.002,0-0.092,0.014-0.235,0.052c-0.071,0.02-0.155,0.046-0.245,0.08c-0.064,0.024-0.121,0.049-0.177,0.076
	c-0.028,0.011-0.038,0.013-0.062,0.029c-0.042,0.02-0.078,0.042-0.146,0.08l-0.057,0.033c-0.035,0.021-0.065,0.042-0.078,0.052
	c-0.031,0.021-0.063,0.043-0.092,0.065c-0.034,0.026-0.063,0.049-0.114,0.092c-0.042,0.036-0.081,0.07-0.114,0.102
	c-0.104,0.1-0.176,0.226-0.22,0.362l-0.008,0.017c-0.002,0.005-0.019,0.046-0.02,0.05l-0.11,0.353l-0.014,0.064
	c-0.006,0.032-0.014,0.062-0.021,0.104c-0.003,0.026-0.006,0.049-0.008,0.081c-0.007,0.058-0.014,0.115-0.017,0.177
	c-0.005,0.097-0.005,0.184-0.001,0.226c0,0.009-0.001,0.019,0,0.029c0,0.005,0,0.012,0,0.018c0.005,0.128,0.018,0.214,0.027,0.265
	l0.015,0.092c0.013,0.084,0.035,0.175,0.056,0.262c0.001,0.009,0.008,0.032,0.013,0.049c-0.013,0-0.027-0.001-0.037-0.001
	c-0.007,0-0.042,0.003-0.049,0.003c-0.097,0.006-0.188,0.015-0.297,0.03l-0.061,0.009c-0.003,0-0.049,0.007-0.052,0.007
	c-0.001,0-0.092,0.016-0.178,0.04c-0.02,0.004-0.039,0.008-0.059,0.013c-0.071,0.02-0.154,0.045-0.243,0.079
	c-0.064,0.025-0.123,0.051-0.176,0.075c-0.012,0.004-0.031,0.013-0.05,0.022c-0.005,0.002-0.012,0.005-0.017,0.008
	c-0.042,0.021-0.077,0.041-0.138,0.076l-0.062,0.037c-0.035,0.02-0.064,0.042-0.081,0.054c-0.031,0.021-0.062,0.042-0.088,0.063
	c-0.033,0.025-0.062,0.048-0.115,0.093c-0.044,0.037-0.082,0.07-0.115,0.101c-0.106,0.104-0.179,0.23-0.222,0.371l-0.02,0.043
	L9.02,14.425l-0.015,0.064c-0.007,0.03-0.013,0.062-0.021,0.108c-0.003,0.022-0.005,0.045-0.008,0.076
	c-0.007,0.058-0.014,0.115-0.017,0.179c-0.005,0.095-0.005,0.18-0.001,0.269c0.006,0.129,0.02,0.215,0.028,0.265
	C8.99,15.422,8.996,15.459,9,15.479c0.011,0.067,0.028,0.14,0.045,0.211c-0.092,0.004-0.179,0.012-0.258,0.023l-0.085,0.013
	c-0.003,0-0.048,0.006-0.052,0.006c-0.001,0-0.093,0.016-0.178,0.041c-0.019,0.003-0.039,0.008-0.058,0.013
	c-0.071,0.02-0.156,0.045-0.242,0.08c-0.065,0.023-0.124,0.049-0.177,0.074c-0.012,0.004-0.031,0.014-0.05,0.024
	c-0.005,0.002-0.01,0.004-0.016,0.007c-0.04,0.02-0.076,0.04-0.139,0.076L7.733,16.08c-0.038,0.022-0.067,0.044-0.085,0.058
	c-0.031,0.021-0.062,0.041-0.088,0.062c-0.033,0.025-0.061,0.048-0.115,0.093c-0.042,0.036-0.081,0.071-0.115,0.104
	c-0.105,0.101-0.178,0.228-0.222,0.368l-0.02,0.043l-0.117,0.368l-0.013,0.063c-0.006,0.032-0.014,0.065-0.021,0.112
	c-0.004,0.023-0.006,0.046-0.009,0.074c-0.007,0.058-0.013,0.115-0.017,0.182c-0.004,0.094-0.004,0.179,0,0.267
	c0.006,0.13,0.019,0.217,0.028,0.266c0.004,0.035,0.01,0.068,0.015,0.093c0.014,0.084,0.034,0.175,0.056,0.261
	c0.002,0.007,0.009,0.031,0.014,0.05c-0.002,0-0.005,0-0.007,0c-0.003,0-0.008,0-0.012,0c-0.002,0-0.007,0-0.013,0
	c-0.017,0-0.033,0-0.046,0.002c-0.004,0-0.008,0-0.01,0c-0.099,0.006-0.188,0.015-0.299,0.031l-0.109,0.014
	c-0.003,0-0.093,0.015-0.178,0.039c-0.02,0.005-0.039,0.009-0.058,0.015c-0.07,0.019-0.155,0.045-0.242,0.078
	c-0.064,0.024-0.124,0.05-0.174,0.074c-0.011,0.004-0.058,0.026-0.07,0.033c-0.042,0.021-0.078,0.041-0.142,0.078
	c-0.026,0.014-0.05,0.028-0.055,0.03c-0.036,0.022-0.065,0.041-0.084,0.058c-0.031,0.021-0.063,0.041-0.088,0.062
	c-0.034,0.027-0.063,0.05-0.115,0.093c-0.043,0.037-0.08,0.07-0.114,0.103c-0.104,0.102-0.178,0.229-0.222,0.366l-0.019,0.044
	l-0.12,0.38l-0.012,0.058c-0.006,0.029-0.012,0.058-0.02,0.105c-0.005,0.024-0.007,0.047-0.01,0.078
	c-0.007,0.055-0.013,0.11-0.017,0.181c-0.004,0.093-0.004,0.181-0.001,0.263c0.006,0.13,0.019,0.219,0.02,0.221l0.024,0.144
	c0.011,0.068,0.028,0.14,0.045,0.208c-0.093,0.004-0.179,0.013-0.259,0.022l-0.138,0.021c-0.002,0-0.092,0.015-0.178,0.039
	c-0.019,0.004-0.039,0.009-0.057,0.015C4.171,21.411,4.088,21.438,4,21.471c-0.063,0.022-0.122,0.05-0.177,0.074
	c-0.011,0.004-0.055,0.024-0.065,0.03c-0.041,0.021-0.078,0.042-0.138,0.076c-0.027,0.015-0.055,0.031-0.06,0.035
	c-0.037,0.021-0.066,0.041-0.085,0.056c-0.032,0.022-0.063,0.043-0.087,0.062c-0.033,0.024-0.062,0.05-0.116,0.095
	c-0.043,0.035-0.081,0.07-0.116,0.101c-0.105,0.104-0.178,0.23-0.222,0.368L2.917,22.41l-0.118,0.371
	c0,0.002-0.014,0.065-0.013,0.065c-0.006,0.031-0.014,0.06-0.021,0.106c-0.003,0.025-0.005,0.046-0.007,0.076
	c-0.008,0.058-0.014,0.113-0.017,0.18c-0.005,0.094-0.004,0.179-0.001,0.267c0.005,0.104,0.014,0.178,0.017,0.204l0.003-0.002
	c0.002,0.026,0.006,0.051,0.008,0.065c0.004,0.035,0.011,0.072,0.015,0.093c0.014,0.082,0.034,0.175,0.056,0.257
	c0.002,0.017,0.011,0.05,0.016,0.064l0.001,0.002c0.001,0,0.001,0.004,0.002,0.006c0.03,0.109,0.068,0.227,0.127,0.374
	c0,0.002,0.023,0.056,0.024,0.056c0.002,0.006,0.021,0.05,0.023,0.056c0.069,0.156,0.142,0.296,0.211,0.422
	c0.104,0.183,0.188,0.307,0.202,0.329c0.001,0.002,0.033,0.043,0.034,0.047l0.047,0.066c0.061,0.088,0.131,0.183,0.219,0.292
	l0.084,0.104c0.048,0.058,0.1,0.117,0.157,0.183l0.132,0.146l0.041,0.045c0.003,0.005,0.062,0.064,0.065,0.068l0.204,0.201
	c0.119,0.113,0.229,0.214,0.306,0.28l0.073,0.06c0.091,0.078,0.178,0.149,0.26,0.216c0.057,0.047,0.137,0.111,0.244,0.191
	c0.25,0.185,0.546,0.385,0.854,0.569c0.253,0.154,0.517,0.301,0.795,0.444c0.005,0.002,0.053,0.026,0.058,0.031l0.128,0.062
	c0.491,0.238,0.898,0.393,1.189,0.491C8.62,29,8.897,29.087,9.157,29.152c0.086,0.022,0.168,0.041,0.25,0.06l0.058,0.015
	c0.174,0.037,0.339,0.07,0.494,0.095l0.092,0.015c0.12,0.019,0.232,0.034,0.344,0.047l0.1,0.011c0.074,0.008,0.14,0.014,0.199,0.019
	l-0.025,0.106c-0.02,0.043-0.037,0.072-0.036,0.074c0,0,0-0.002,0.001-0.002c-0.003,0.002-0.049,0.062-0.052,0.063
	c-0.169,0.165-0.265,0.389-0.269,0.632c-0.004,0.265,0.103,0.53,0.294,0.728c0.041,0.041,0.085,0.08,0.131,0.113
	c0.387,0.288,0.901,0.27,1.234-0.054l0.055-0.058c0.002-0.002,0.049-0.053,0.049-0.056l0.054-0.062
	c0.104-0.123,0.191-0.249,0.258-0.376c0.014-0.022,0.025-0.046,0.044-0.085c0.048-0.094,0.094-0.201,0.144-0.345
	c0.047-0.143,0.083-0.294,0.113-0.487c0.004-0.019,0.01-0.056,0.013-0.074c0.007-0.064,0.013-0.13,0.017-0.189
	c0.004-0.045,0.006-0.093,0.008-0.136l0-0.011l0.019-0.006c0.042-0.015,0.081-0.031,0.131-0.047
	c0.063-0.027,0.121-0.052,0.167-0.072c0.009-0.004,0.039-0.019,0.048-0.021c0.163-0.078,0.317-0.169,0.479-0.288
	c0.101-0.074,0.187-0.148,0.286-0.242c0.003-0.003,0.024-0.025,0.035-0.037c0.001-0.002,0.005-0.005,0.007-0.007
	c0.062-0.062,0.12-0.134,0.178-0.212c0.002-0.002,0.048-0.051,0.049-0.051l0.054-0.066c0.104-0.121,0.189-0.249,0.257-0.376
	c0.015-0.021,0.027-0.043,0.044-0.082c0.048-0.097,0.093-0.202,0.144-0.348c0.054-0.161,0.094-0.338,0.113-0.485
	c0.003-0.017,0.008-0.058,0.011-0.076c0.008-0.062,0.014-0.128,0.018-0.188c0.004-0.047,0.006-0.093,0.007-0.138l0-0.011
	l0.022-0.006c0.04-0.015,0.08-0.028,0.125-0.047c0.064-0.025,0.123-0.05,0.17-0.072c0.009-0.004,0.039-0.017,0.047-0.021
	c0.165-0.078,0.319-0.169,0.48-0.286c0.099-0.074,0.187-0.15,0.285-0.242c0.005-0.005,0.024-0.027,0.036-0.039
	c0.002,0,0.004-0.005,0.006-0.007c0.08-0.08,0.157-0.181,0.233-0.29l0.023-0.024c0.002-0.002,0.047-0.054,0.05-0.056l0.052-0.062
	c0.104-0.121,0.19-0.249,0.257-0.376c0.015-0.023,0.027-0.044,0.043-0.083c0.05-0.094,0.095-0.203,0.146-0.345
	c0.047-0.145,0.085-0.299,0.112-0.49l0,0c0.004-0.016,0.009-0.058,0.012-0.073c0.007-0.063,0.015-0.128,0.019-0.191
	c0.003-0.046,0.006-0.093,0.006-0.128v-0.017l0.02-0.004c0.04-0.017,0.083-0.031,0.128-0.05c0.063-0.024,0.122-0.049,0.17-0.071
	c0.009-0.004,0.039-0.017,0.048-0.021c0.165-0.078,0.319-0.169,0.479-0.286c0.101-0.074,0.187-0.15,0.24-0.204l0.045-0.041
	c0.004-0.002,0.025-0.024,0.034-0.034c0.003-0.003,0.006-0.007,0.008-0.009c0.062-0.062,0.12-0.134,0.178-0.21
	c0.004-0.004,0.048-0.053,0.049-0.056l0.055-0.063c0.103-0.121,0.189-0.247,0.257-0.374c0.014-0.022,0.027-0.045,0.045-0.084
	c0.047-0.095,0.095-0.202,0.143-0.346c0.049-0.145,0.086-0.297,0.113-0.49h0.001c0.004-0.014,0.009-0.055,0.012-0.071
	c0.007-0.064,0.014-0.13,0.017-0.189c0.005-0.045,0.007-0.093,0.009-0.136v-0.013l0.021-0.006c0.04-0.013,0.079-0.028,0.126-0.045
	c0.063-0.025,0.121-0.052,0.169-0.074c0.009-0.002,0.039-0.017,0.048-0.021c0.164-0.078,0.318-0.169,0.479-0.286
	c0.101-0.074,0.187-0.148,0.241-0.203l0.044-0.039c0.004-0.005,0.024-0.027,0.036-0.037c0.001-0.003,0.004-0.005,0.006-0.009
	c0.081-0.08,0.156-0.179,0.233-0.29l0.024-0.024c0.001-0.002,0.046-0.052,0.048-0.054l0.054-0.063
	c0.103-0.121,0.19-0.247,0.257-0.377c0.014-0.018,0.024-0.039,0.043-0.082c0.051-0.097,0.095-0.203,0.145-0.346
	c0.056-0.162,0.097-0.339,0.114-0.485c0.004-0.019,0.009-0.058,0.011-0.076c0.008-0.063,0.015-0.127,0.019-0.192
	c0.002-0.046,0.006-0.093,0.007-0.132l-0.001-0.013l0.148-0.052c0.063-0.024,0.12-0.051,0.169-0.073
	c0.01-0.002,0.039-0.017,0.047-0.021c0.166-0.079,0.32-0.169,0.48-0.286c0.101-0.074,0.188-0.15,0.238-0.202l0.048-0.041
	c0.003-0.004,0.026-0.028,0.035-0.037c0.002-0.004,0.004-0.006,0.007-0.006c0.061-0.063,0.12-0.134,0.178-0.212l0.001-0.002
	c0.002-0.002,0.048-0.052,0.049-0.052l0.053-0.063c0.104-0.121,0.19-0.249,0.258-0.377c0.013-0.021,0.026-0.044,0.044-0.082
	c0.048-0.097,0.095-0.204,0.143-0.347c0.055-0.16,0.095-0.337,0.113-0.485c0.004-0.019,0.011-0.059,0.013-0.077
	c0.007-0.063,0.015-0.128,0.019-0.191c0.003-0.045,0.005-0.091,0.006-0.133v-0.012c0.011-0.003,0.021-0.006,0.022-0.007
	c0.043-0.015,0.085-0.031,0.126-0.046c0.063-0.025,0.12-0.05,0.168-0.072c0.009-0.004,0.039-0.018,0.049-0.022
	c0.164-0.078,0.319-0.169,0.481-0.286c0.098-0.075,0.185-0.15,0.235-0.201l0.047-0.042c0.004-0.003,0.025-0.026,0.035-0.036
	c0.003-0.002,0.005-0.004,0.007-0.007c0.082-0.081,0.158-0.181,0.233-0.291l0.024-0.025c0.001-0.002,0.047-0.051,0.049-0.053
	l0.053-0.063c0.103-0.122,0.189-0.249,0.258-0.377c0.013-0.021,0.023-0.041,0.044-0.083c0.048-0.095,0.093-0.202,0.143-0.345
	c0.055-0.162,0.096-0.338,0.121-0.524h-0.001c0.002-0.015,0.004-0.027,0.004-0.037c0.009-0.063,0.016-0.128,0.019-0.192
	c0.006-0.045,0.007-0.091,0.008-0.134v-0.012l0.146-0.052c0.063-0.024,0.12-0.049,0.171-0.072c0.008-0.003,0.038-0.017,0.046-0.021
	c0.165-0.078,0.32-0.169,0.481-0.287c0.099-0.074,0.186-0.149,0.236-0.2c0.008-0.006,0.043-0.037,0.049-0.043
	c0.004-0.003,0.025-0.025,0.035-0.037c0.002-0.003,0.005-0.004,0.006-0.006c0.063-0.062,0.12-0.133,0.179-0.21l0.001-0.002
	c0.002-0.002,0.047-0.051,0.048-0.054l0.055-0.063c0.103-0.122,0.189-0.248,0.258-0.377c0.012-0.019,0.022-0.039,0.044-0.082
	c0.049-0.096,0.093-0.203,0.144-0.347c0.054-0.162,0.094-0.338,0.119-0.524l0,0c0.002-0.014,0.004-0.027,0.005-0.037
	c0.007-0.063,0.014-0.128,0.019-0.192c0.002-0.045,0.005-0.09,0.007-0.133V9.625l0.148-0.052c0.062-0.024,0.119-0.05,0.168-0.072
	c0.009-0.002,0.039-0.017,0.047-0.021c0.163-0.078,0.318-0.168,0.48-0.286c0.101-0.074,0.187-0.15,0.286-0.244
	c0.003-0.003,0.024-0.026,0.034-0.037c0.002-0.002,0.005-0.004,0.008-0.006c0.107-0.11,0.208-0.241,0.31-0.404
	c0.003-0.004,0.027-0.044,0.029-0.048c0.001-0.003,0.034-0.059,0.035-0.061l0.039-0.069c0.001-0.002,0.001-0.004,0.003-0.006
	l0.008-0.013c0.003-0.004,0.031-0.051,0.034-0.056c0.09-0.148,0.157-0.295,0.202-0.429C29.131,7.8,29.139,7.78,29.153,7.728z
	 M10.958,14.959c0.04-0.013,0.083-0.019,0.164-0.031c0.065-0.005,0.134-0.01,0.217-0.008c0.07,0,0.17,0.013,0.258,0.026
	c0.092,0.015,0.195,0.038,0.311,0.068l0.058,0.017l0.115,0.034c0.12,0.038,0.22,0.079,0.376,0.141
	c0.066,0.025,0.136,0.031,0.203,0.027c0.025,0.024,0.053,0.053,0.074,0.074c0.003,0.004,0.034,0.034,0.038,0.037
	c0.119,0.114,0.229,0.216,0.312,0.285l0.065,0.053c0.091,0.078,0.179,0.151,0.261,0.218c0.056,0.046,0.137,0.111,0.243,0.189
	c0.25,0.188,0.547,0.385,0.854,0.569c0.16,0.099,0.333,0.189,0.504,0.281c0.018,0.083,0.048,0.161,0.108,0.227l0.179,0.197
	c0.053,0.062,0.104,0.121,0.177,0.208l0.072,0.086c0.171,0.214,0.333,0.433,0.481,0.658c0.049,0.076,0.096,0.15,0.159,0.253
	L16.27,18.7c0.038,0.065,0.073,0.13,0.121,0.218l0.039,0.074l-0.137-0.024c-0.061-0.013-0.121-0.026-0.185-0.041l-0.129-0.031
	c-0.366-0.091-0.73-0.205-1.081-0.341l-0.12-0.05c-0.079-0.033-0.159-0.065-0.235-0.099l-0.152-0.07
	c-0.084-0.039-0.169-0.076-0.252-0.119l-0.044-0.022c-0.05-0.024-0.095-0.052-0.144-0.076c-0.021-0.097-0.065-0.189-0.144-0.259
	l-0.152-0.138c-0.235-0.208-0.47-0.399-0.697-0.568c-0.158-0.115-0.28-0.199-0.36-0.253c-0.092-0.058-0.191-0.121-0.307-0.195
	c-0.006-0.002-0.044-0.028-0.05-0.033c-0.059-0.036-0.134-0.08-0.215-0.127c-0.086-0.048-0.18-0.06-0.272-0.055
	c-0.043-0.046-0.085-0.091-0.143-0.164c-0.094-0.114-0.158-0.192-0.225-0.288c-0.025-0.036-0.049-0.071-0.072-0.105l-0.027-0.042
	c-0.065-0.102-0.118-0.194-0.158-0.27c-0.043-0.088-0.086-0.182-0.109-0.252c-0.023-0.074-0.042-0.14-0.061-0.243
	c-0.009-0.044-0.015-0.087-0.015-0.137c0-0.009,0.001-0.016,0.003-0.024C10.95,14.963,10.953,14.96,10.958,14.959z M10.074,27.322
	c-0.062-0.011-0.123-0.022-0.186-0.037l-0.129-0.031c-0.366-0.092-0.73-0.207-1.081-0.343l-0.121-0.05
	C8.479,26.83,8.4,26.798,8.322,26.763l-0.152-0.07c-0.085-0.037-0.167-0.076-0.248-0.117l-0.047-0.022
	c-0.248-0.127-0.474-0.255-0.68-0.376c-0.24-0.145-0.465-0.294-0.72-0.487l-0.119-0.091c-0.08-0.063-0.157-0.124-0.256-0.208
	l-0.084-0.072c-0.118-0.108-0.29-0.267-0.447-0.434l-0.034-0.037c-0.042-0.045-0.084-0.09-0.145-0.164
	c-0.093-0.115-0.158-0.193-0.225-0.288c-0.026-0.037-0.051-0.074-0.099-0.148C5,24.146,4.948,24.054,4.909,23.978
	c-0.044-0.088-0.086-0.181-0.11-0.253c-0.024-0.071-0.041-0.138-0.061-0.242c-0.008-0.046-0.014-0.089-0.015-0.136
	c0.001-0.011,0.002-0.017,0.003-0.025c0.004-0.002,0.008-0.004,0.013-0.006c0.04-0.013,0.085-0.019,0.165-0.03
	c0.066-0.007,0.135-0.011,0.218-0.009c0.07,0,0.168,0.013,0.257,0.026c0.092,0.015,0.194,0.037,0.31,0.068l0.053,0.015l0.12,0.037
	c0.047,0.014,0.09,0.028,0.136,0.045c0.057,0.022,0.114,0.028,0.169,0.024l0.005,0.007c0.003,0.004,0.031,0.034,0.035,0.036
	L6.268,23.6c0.063,0.062,0.121,0.121,0.206,0.205c0.119,0.111,0.228,0.212,0.312,0.284l0.327,0.273
	c0.056,0.045,0.135,0.109,0.24,0.186c0.256,0.191,0.544,0.384,0.859,0.571c0.253,0.154,0.515,0.303,0.793,0.444
	c0.002,0,0.01,0.004,0.014,0.006c0.019,0.068,0.048,0.134,0.096,0.191l0.213,0.253c0.171,0.214,0.332,0.435,0.48,0.656
	c0.055,0.082,0.105,0.165,0.162,0.255l0.081,0.132c0.038,0.065,0.072,0.128,0.131,0.234l0.029,0.056L10.074,27.322z M12.17,24.58
	c-0.077-0.012-0.155-0.028-0.233-0.047l-0.131-0.031c-0.363-0.09-0.728-0.205-1.075-0.341l-0.114-0.046
	c-0.083-0.034-0.165-0.067-0.247-0.103l-0.15-0.069c-0.085-0.037-0.169-0.076-0.25-0.12l-0.047-0.022
	c-0.053-0.026-0.094-0.054-0.145-0.08c-0.022-0.095-0.066-0.188-0.143-0.257l-0.151-0.136c-0.237-0.208-0.47-0.399-0.696-0.568
	c-0.159-0.117-0.282-0.201-0.361-0.253c-0.093-0.06-0.191-0.121-0.307-0.195c-0.008-0.004-0.047-0.032-0.055-0.037
	c-0.058-0.034-0.131-0.078-0.21-0.123c-0.086-0.047-0.181-0.06-0.272-0.056c-0.043-0.047-0.086-0.093-0.143-0.162
	c-0.095-0.115-0.159-0.193-0.223-0.286c-0.026-0.035-0.052-0.072-0.074-0.109l-0.027-0.041c-0.064-0.103-0.118-0.195-0.158-0.273
	c-0.044-0.086-0.086-0.181-0.109-0.246c-0.024-0.076-0.042-0.143-0.063-0.243c-0.008-0.047-0.014-0.091-0.014-0.138
	c0-0.011,0.002-0.019,0.003-0.026c0.004-0.003,0.008-0.003,0.013-0.005c0.039-0.012,0.083-0.019,0.167-0.03
	c0.065-0.007,0.133-0.013,0.214-0.011c0.07,0.002,0.17,0.015,0.257,0.027c0.093,0.014,0.196,0.036,0.313,0.067l0.053,0.017
	l0.12,0.035c0.114,0.037,0.212,0.076,0.375,0.14c0.068,0.026,0.136,0.033,0.204,0.028C8.52,20.872,8.556,20.907,8.6,20.95
	c0.119,0.111,0.228,0.212,0.312,0.284l0.067,0.054c0.09,0.078,0.177,0.149,0.259,0.218c0.057,0.045,0.137,0.108,0.243,0.189
	c0.25,0.187,0.548,0.384,0.856,0.569c0.165,0.103,0.34,0.195,0.514,0.288c0.02,0.09,0.056,0.179,0.122,0.246l0.155,0.169
	c0.052,0.062,0.104,0.124,0.158,0.189c0,0,0.031,0.037,0.033,0.037l0.056,0.067c0.174,0.219,0.336,0.44,0.481,0.658
	c0.054,0.083,0.104,0.163,0.161,0.255l0.082,0.134c0.036,0.064,0.072,0.126,0.121,0.217l0.037,0.071L12.17,24.58z M12.85,21.307
	l-0.108-0.046c-0.083-0.033-0.166-0.067-0.243-0.101l-0.154-0.072c-0.085-0.039-0.169-0.078-0.251-0.119l-0.047-0.022
	c-0.247-0.128-0.475-0.253-0.679-0.374c-0.244-0.15-0.471-0.303-0.715-0.483l-0.001-0.002l-0.124-0.095
	c-0.079-0.062-0.156-0.124-0.228-0.184l-0.065-0.056l-0.047-0.043c-0.118-0.106-0.29-0.265-0.448-0.432l-0.033-0.035
	c-0.042-0.047-0.084-0.093-0.134-0.154c-0.099-0.119-0.165-0.201-0.235-0.3c-0.026-0.035-0.049-0.07-0.098-0.146
	c-0.066-0.103-0.119-0.195-0.159-0.273c-0.043-0.086-0.085-0.179-0.109-0.249c-0.025-0.074-0.042-0.142-0.063-0.247
	c-0.007-0.043-0.014-0.084-0.014-0.133c0-0.009,0.002-0.017,0.002-0.025c0.005-0.002,0.008-0.002,0.014-0.006
	c0.04-0.013,0.083-0.019,0.164-0.029c0.065-0.008,0.134-0.012,0.218-0.01c0.071,0.002,0.169,0.015,0.257,0.026
	c0.092,0.017,0.194,0.037,0.319,0.072l0.166,0.047c0.04,0.013,0.078,0.027,0.135,0.048c0.056,0.021,0.113,0.026,0.169,0.022
	c0.002,0.002,0.004,0.004,0.006,0.009c0.003,0.002,0.03,0.032,0.034,0.036l0.061,0.063c0.063,0.063,0.12,0.121,0.206,0.205
	c0.119,0.113,0.228,0.214,0.312,0.284l0.065,0.054c0.001,0.002,0.041,0.032,0.042,0.034l0.22,0.186
	c0.056,0.045,0.137,0.109,0.243,0.188c0.25,0.187,0.547,0.384,0.855,0.569c0.257,0.158,0.519,0.305,0.805,0.45
	c0,0,0.002,0.002,0.003,0.002c0.019,0.07,0.048,0.136,0.098,0.193c0.039,0.046,0.078,0.093,0.139,0.165l0.071,0.086
	c0.165,0.204,0.321,0.418,0.467,0.634c0.005,0.008,0.01,0.017,0.015,0.022c0.05,0.076,0.097,0.152,0.16,0.255l0.083,0.134
	c0.033,0.058,0.066,0.117,0.119,0.216l0.038,0.072l-0.135-0.024c-0.061-0.013-0.123-0.025-0.186-0.039l-0.13-0.031
	C13.565,21.557,13.201,21.441,12.85,21.307z M12.536,27.001l-0.037,0.058c-0.009,0.011-0.033,0.039-0.1,0.097
	c-0.002,0.002-0.056,0.037-0.072,0.048c-0.026-0.066-0.056-0.136-0.088-0.214l-0.041-0.093c-0.044-0.097-0.093-0.202-0.149-0.314
	l-0.003-0.005c0.025,0.005,0.051,0.009,0.051,0.009c0.123,0.019,0.235,0.033,0.339,0.045l0.104,0.013
	c0.072,0.006,0.139,0.012,0.196,0.017l-0.02,0.106C12.644,26.835,12.581,26.911,12.536,27.001z M14.816,23.966
	c-0.098,0.078-0.178,0.173-0.233,0.283l-0.037,0.058c-0.009,0.013-0.032,0.039-0.097,0.097c-0.002,0.002-0.061,0.041-0.073,0.05
	c-0.027-0.068-0.055-0.138-0.089-0.214c-0.001-0.002-0.02-0.043-0.021-0.046l-0.021-0.047c-0.045-0.097-0.093-0.201-0.148-0.313
	c0-0.002-0.04-0.08-0.04-0.082c-0.009-0.019-0.021-0.037-0.031-0.056c0.034,0.006,0.072,0.017,0.105,0.021l0.089,0.012
	c0.121,0.021,0.235,0.035,0.371,0.052l0.075,0.009c0.072,0.008,0.14,0.014,0.198,0.016l-0.025,0.109
	C14.831,23.935,14.822,23.951,14.816,23.966z M17.017,15.697l-0.055-0.023c-0.001,0-0.047-0.018-0.048-0.018
	c-0.082-0.033-0.166-0.068-0.245-0.101L16.51,15.48c-0.082-0.039-0.164-0.078-0.247-0.118l-0.045-0.022
	c-0.247-0.127-0.474-0.252-0.679-0.375c-0.243-0.148-0.47-0.301-0.712-0.481l-0.129-0.098c-0.078-0.063-0.156-0.124-0.227-0.182
	l-0.059-0.052c-0.002-0.002-0.051-0.045-0.053-0.048c-0.119-0.106-0.29-0.265-0.438-0.418l-0.044-0.047
	c-0.042-0.047-0.085-0.095-0.122-0.138c-0.105-0.13-0.175-0.214-0.245-0.311l-0.1-0.151c-0.066-0.101-0.118-0.195-0.16-0.273
	c-0.043-0.088-0.085-0.18-0.109-0.252c-0.024-0.073-0.042-0.141-0.061-0.241c-0.009-0.044-0.016-0.086-0.015-0.136
	c0-0.009,0.002-0.017,0.003-0.024c0.004-0.002,0.007-0.004,0.013-0.005c0.039-0.013,0.084-0.02,0.166-0.032
	c0.065-0.006,0.134-0.011,0.214-0.008c0.07,0.001,0.17,0.012,0.26,0.026c0.092,0.015,0.195,0.038,0.312,0.069l0.056,0.015
	l0.117,0.036c0.039,0.012,0.076,0.025,0.134,0.046c0.057,0.021,0.114,0.026,0.17,0.022c0,0.001,0,0.001,0.001,0.001
	c0.004,0.005,0.036,0.039,0.04,0.044l0.06,0.06c0.062,0.063,0.119,0.121,0.208,0.207c0.118,0.115,0.229,0.215,0.306,0.28l0.072,0.06
	c0.091,0.077,0.179,0.15,0.261,0.218c0.056,0.045,0.136,0.11,0.242,0.188c0.251,0.188,0.548,0.384,0.856,0.57
	c0.252,0.154,0.512,0.3,0.779,0.436c0,0,0.046,0.024,0.049,0.027c0.021,0.077,0.052,0.151,0.104,0.214l0.183,0.218
	c0.173,0.216,0.335,0.437,0.483,0.658c0.05,0.075,0.096,0.15,0.159,0.253l0.081,0.135c0.031,0.052,0.059,0.102,0.087,0.153
	l0.034,0.063l0.039,0.074l-0.047-0.008l-0.068-0.014c-0.069-0.014-0.137-0.027-0.207-0.043l-0.129-0.032
	C17.737,15.95,17.373,15.835,17.017,15.697z M16.958,21.099l-0.046-0.004l0.034,0.012c-0.1,0.08-0.183,0.177-0.239,0.288
	l-0.035,0.056c-0.011,0.013-0.033,0.041-0.104,0.103l-0.07,0.039c-0.026-0.063-0.053-0.134-0.088-0.21l-0.039-0.088
	c-0.041-0.093-0.088-0.193-0.152-0.323l0.052,0.009c0.119,0.019,0.232,0.034,0.344,0.047l0.1,0.011
	c0.112,0.012,0.21,0.019,0.299,0.024C16.994,21.074,16.976,21.086,16.958,21.099z M19.065,12.946l-0.103-0.042
	c-0.085-0.034-0.166-0.068-0.245-0.101l-0.16-0.075c-0.083-0.038-0.166-0.077-0.246-0.118l-0.045-0.022
	c-0.05-0.026-0.096-0.051-0.145-0.076c-0.021-0.097-0.065-0.189-0.144-0.26l-0.151-0.137c-0.236-0.208-0.472-0.399-0.698-0.568
	c-0.157-0.117-0.279-0.2-0.358-0.251c-0.094-0.061-0.191-0.124-0.303-0.192c-0.007-0.005-0.049-0.033-0.056-0.038
	c-0.06-0.036-0.133-0.081-0.215-0.126c-0.085-0.049-0.18-0.062-0.272-0.056c-0.042-0.046-0.084-0.091-0.121-0.137
	c-0.106-0.129-0.175-0.214-0.247-0.315c-0.025-0.036-0.051-0.073-0.098-0.146c-0.066-0.102-0.119-0.195-0.159-0.273
	c-0.043-0.086-0.086-0.18-0.109-0.252c-0.024-0.073-0.042-0.14-0.063-0.244c-0.007-0.044-0.013-0.086-0.013-0.136
	c0-0.008,0.002-0.015,0.002-0.023c0.005-0.002,0.009-0.004,0.013-0.006c0.04-0.012,0.083-0.019,0.166-0.03
	c0.065-0.007,0.134-0.011,0.216-0.008c0.071,0,0.169,0.012,0.258,0.026c0.092,0.015,0.193,0.037,0.311,0.069
	c0.002,0,0.05,0.013,0.053,0.014l0.119,0.035c0.119,0.038,0.22,0.079,0.376,0.14c0.067,0.027,0.137,0.033,0.205,0.029
	c0.024,0.024,0.053,0.053,0.073,0.074c0.003,0.003,0.033,0.033,0.038,0.036c0.118,0.114,0.229,0.215,0.313,0.285l0.064,0.054
	c0.091,0.076,0.177,0.149,0.262,0.219c0.055,0.046,0.135,0.109,0.239,0.186c0.256,0.191,0.545,0.384,0.857,0.572
	c0.17,0.103,0.347,0.196,0.521,0.291c0.02,0.093,0.058,0.182,0.124,0.252l0.054,0.059l0.094,0.104c0.053,0.06,0.104,0.121,0.16,0.19
	l0.086,0.103c0.173,0.216,0.335,0.437,0.481,0.657c0.049,0.074,0.095,0.149,0.161,0.255l0.081,0.134
	c0.035,0.059,0.067,0.117,0.108,0.193c0.019,0.032,0.034,0.064,0.052,0.096l-0.047-0.007l-0.069-0.014
	c-0.068-0.014-0.136-0.027-0.205-0.042l-0.131-0.033C19.784,13.199,19.42,13.084,19.065,12.946z M18.988,18.359
	c-0.099,0.078-0.178,0.174-0.232,0.285L18.718,18.7c-0.009,0.013-0.03,0.039-0.103,0.101l-0.07,0.037
	c-0.026-0.063-0.054-0.132-0.086-0.205l-0.041-0.093c-0.044-0.097-0.093-0.202-0.163-0.342c-0.001-0.004-0.023-0.049-0.025-0.051
	c-0.009-0.019-0.021-0.039-0.03-0.058c0.033,0.006,0.072,0.014,0.104,0.021l0.091,0.014c0.122,0.019,0.235,0.035,0.371,0.05
	l0.073,0.008c0.071,0.009,0.137,0.013,0.199,0.017l-0.026,0.109C19.004,18.33,18.994,18.347,18.988,18.359z M21.195,10.093
	l-0.111-0.045c-0.083-0.033-0.164-0.067-0.241-0.102l-0.161-0.072c-0.081-0.039-0.163-0.077-0.244-0.118L20.39,9.733
	c-0.246-0.126-0.474-0.252-0.679-0.375c-0.24-0.146-0.466-0.298-0.713-0.483c-0.002,0-0.003-0.001-0.003-0.001L18.87,8.779
	c-0.078-0.062-0.155-0.123-0.227-0.182l-0.059-0.05L18.53,8.498c-0.117-0.107-0.289-0.266-0.444-0.43
	c-0.004-0.002-0.033-0.035-0.036-0.038c-0.043-0.047-0.086-0.093-0.122-0.138c-0.105-0.13-0.175-0.214-0.243-0.312l-0.102-0.149
	c-0.065-0.103-0.119-0.195-0.16-0.275c-0.043-0.087-0.085-0.181-0.107-0.249c-0.024-0.075-0.042-0.143-0.062-0.243
	c-0.009-0.045-0.014-0.088-0.015-0.136c0-0.009,0.002-0.017,0.002-0.025c0.005-0.001,0.009-0.003,0.014-0.005
	c0.039-0.013,0.083-0.02,0.167-0.031c0.067-0.006,0.134-0.01,0.211-0.009c0.071,0,0.172,0.013,0.257,0.025
	c0.094,0.016,0.198,0.038,0.312,0.069l0.061,0.017c0.037,0.01,0.074,0.021,0.117,0.035c0.044,0.015,0.087,0.03,0.131,0.046
	c0.058,0.021,0.116,0.027,0.173,0.024c0.011,0.011,0.036,0.04,0.041,0.044l0.061,0.061c0.063,0.063,0.12,0.123,0.169,0.17
	c0.004,0.003,0.034,0.033,0.038,0.037c0.118,0.115,0.229,0.214,0.312,0.286l0.326,0.271c0.057,0.046,0.137,0.11,0.243,0.189
	c0.252,0.188,0.548,0.385,0.855,0.57c0.256,0.156,0.519,0.302,0.795,0.443c0.001,0,0.009,0.005,0.016,0.007
	c0.017,0.068,0.045,0.135,0.093,0.192l0.124,0.146c0,0.001,0.031,0.038,0.031,0.038l0.056,0.067c0.18,0.223,0.341,0.443,0.483,0.658
	c0.055,0.082,0.105,0.164,0.16,0.255l0.083,0.135c0.036,0.063,0.07,0.125,0.12,0.215l0.037,0.072l-0.089-0.015
	c-0.076-0.015-0.153-0.03-0.23-0.048l-0.13-0.032C21.909,10.344,21.545,10.229,21.195,10.093z M20.881,15.789l-0.038,0.057
	c-0.01,0.013-0.031,0.04-0.101,0.099l-0.072,0.039c-0.027-0.066-0.054-0.132-0.086-0.207l-0.04-0.089
	c-0.042-0.092-0.088-0.192-0.153-0.322l0.053,0.008c0.12,0.019,0.233,0.035,0.369,0.05l0.075,0.009
	c0.072,0.007,0.139,0.012,0.197,0.018l-0.023,0.101C20.988,15.619,20.925,15.699,20.881,15.789z M23.236,7.34l-0.104-0.043
	c-0.086-0.034-0.168-0.069-0.238-0.099L22.73,7.124c-0.083-0.039-0.163-0.077-0.245-0.118l-0.047-0.024
	c-0.053-0.026-0.095-0.053-0.144-0.08c-0.023-0.095-0.066-0.186-0.145-0.255l-0.153-0.138c-0.234-0.208-0.469-0.398-0.694-0.565
	c-0.158-0.119-0.281-0.201-0.36-0.253c-0.093-0.06-0.191-0.123-0.304-0.194c-0.005-0.003-0.049-0.032-0.056-0.036
	c-0.058-0.036-0.131-0.079-0.212-0.125c-0.085-0.049-0.182-0.063-0.273-0.057c-0.043-0.046-0.086-0.093-0.122-0.137
	c-0.105-0.13-0.175-0.214-0.245-0.312l-0.1-0.15c-0.065-0.102-0.119-0.195-0.16-0.274c-0.042-0.086-0.085-0.18-0.109-0.25
	c-0.023-0.074-0.041-0.142-0.061-0.24c-0.008-0.046-0.014-0.091-0.016-0.138c0.001-0.008,0.004-0.016,0.005-0.025
	c0.003-0.001,0.008-0.003,0.012-0.005c0.04-0.012,0.083-0.019,0.166-0.031c0.066-0.006,0.136-0.01,0.215-0.009
	c0.071,0.001,0.172,0.013,0.257,0.026c0.094,0.015,0.196,0.038,0.311,0.068l0.06,0.016c0.037,0.011,0.073,0.021,0.116,0.036
	c0.113,0.035,0.209,0.074,0.378,0.14c0.053,0.021,0.109,0.048,0.166,0.075l0.049,0.021c0.204,0.1,0.403,0.215,0.543,0.296
	l0.06,0.034l0.072,0.046c0.077,0.049,0.157,0.102,0.244,0.163L22.2,4.814c0.174,0.13,0.354,0.274,0.541,0.437
	c0.178,0.157,0.363,0.333,0.549,0.521l0.059,0.059c0.057,0.06,0.115,0.122,0.174,0.187l0.123,0.136
	c0.052,0.06,0.104,0.12,0.185,0.219l0.061,0.073c0.175,0.217,0.337,0.438,0.481,0.657c0.055,0.082,0.105,0.164,0.161,0.255
	l0.08,0.132c0.038,0.064,0.073,0.127,0.123,0.218l0.036,0.072l-0.088-0.015c-0.078-0.016-0.155-0.031-0.223-0.045l-0.139-0.034
	C23.957,7.594,23.593,7.479,23.236,7.34z M23.159,12.755c-0.098,0.078-0.178,0.173-0.231,0.282l-0.037,0.056
	c-0.01,0.013-0.032,0.041-0.101,0.1l-0.073,0.042c-0.024-0.065-0.052-0.134-0.087-0.21l-0.038-0.09
	c-0.043-0.098-0.094-0.202-0.149-0.314c0-0.002-0.039-0.08-0.041-0.082c-0.008-0.018-0.021-0.039-0.03-0.058
	c0.046,0.009,0.088,0.019,0.138,0.027l0.061,0.009c0.12,0.019,0.232,0.035,0.335,0.046l0.105,0.012
	c0.072,0.007,0.139,0.013,0.2,0.018l-0.024,0.108C23.175,12.726,23.166,12.744,23.159,12.755z M25.053,10.183l-0.037,0.057
	c-0.011,0.013-0.032,0.041-0.098,0.097c-0.002,0.002-0.066,0.044-0.073,0.05c-0.025-0.066-0.056-0.138-0.088-0.216l-0.04-0.087
	c-0.044-0.099-0.094-0.204-0.149-0.316c0,0-0.002-0.005-0.003-0.007c0.024,0.003,0.052,0.008,0.052,0.008
	c0.122,0.019,0.233,0.034,0.351,0.047l0.09,0.009c0.072,0.008,0.139,0.014,0.2,0.018l-0.023,0.104
	C25.161,10.014,25.098,10.091,25.053,10.183z"/>
</svg>
