<?xml version="1.0" encoding="utf-8"?>
<!-- Generator: Adobe Illustrator 16.0.3, SVG Export Plug-In . SVG Version: 6.00 Build 0)  -->
<!DOCTYPE svg PUBLIC "-//W3C//DTD SVG 1.1//EN" "http://www.w3.org/Graphics/SVG/1.1/DTD/svg11.dtd">
<svg version="1.1" id="Layer_1" xmlns="http://www.w3.org/2000/svg" xmlns:xlink="http://www.w3.org/1999/xlink" x="0px" y="0px"
	 width="32px" height="32px" viewBox="0 0 32 32" enable-background="new 0 0 32 32" xml:space="preserve">
<g>
	<path fill="#818181" d="M26.3,15.6c-0.4,0-0.7,0-1.1,0.1l-0.4-1.3c0.6,0,1.6,0,2.6,0.5c0,0,1.7,1.2,2.3-0.6c0,0,0-0.1,0-0.2
		c-0.1,0-0.2,0-0.3,0c-1.2,0-2.1-1.3-2.1-2.9c0-0.9,0.3-1.7,0.7-2.3c-1.1-1.3-2.9-2.5-6-2.9c0,0-3.4-0.4-2,1.4l1.5,1.7
		c0,0-5.4,0.4-6.9,4.3c0,0-1-0.6-2-0.7c0,0-0.2-1.6-4.7-1.6c0,0-4-0.1-7,1.2c0,0-2.8,1.4,1.1,1.8c0,0,5.1,0.2,8.6,1.8
		c-0.2,0.2-0.6,0.5-1,0.9c-1-0.8-2.2-1.2-3.5-1.2c-3.1,0-5.6,2.5-5.6,5.6s2.5,5.6,5.6,5.6c2.9,0,5.2-2.1,5.6-4.9c0.8,0,1.6,0,2.6,0
		c0.4,0.5,1,0.9,1.9,0.8c0,0,2.2,0.1,2.7-1.9c0,0,1.2-4.8,4.5-6.2l0.4,1.4c-2,0.9-3.3,2.8-3.3,5.1c0,3.1,2.5,5.6,5.6,5.6
		c3.1,0,5.6-2.5,5.6-5.6S29.4,15.6,26.3,15.6z M6.3,24.7c-1.9,0-3.5-1.6-3.5-3.5s1.6-3.5,3.5-3.5c0.7,0,1.3,0.2,1.9,0.5
		c-1.2,1.1-2.3,2.2-2.6,2.5c0,0,0,0,0,0c-0.1,0.1-0.2,0.2-0.2,0.4c0,0.4,0.2,0.7,0.6,0.7c0,0,0,0,3.1,0c0.2,0,0.4,0,0.6,0
		C9.4,23.5,8,24.7,6.3,24.7z M7.6,20.7c0.4-0.4,1-0.9,1.5-1.4c0.3,0.4,0.5,0.9,0.6,1.4C8.9,20.7,8.2,20.7,7.6,20.7z M11.9,20.7
		c-0.1-1.1-0.5-2.1-1.2-2.9c0.4-0.4,0.8-0.7,1.1-1c0,0,0.1-0.1,0.1-0.1c1.2,0.8,1.9,1.8,1.9,3.2c0,0,0,0.4,0.1,0.9
		C13.4,20.7,12.7,20.7,11.9,20.7z M26.3,24.7c-1.9,0-3.5-1.6-3.5-3.5c0-1.3,0.7-2.5,1.8-3l1,3.3c0.1,0.3,0.3,0.5,0.6,0.5
		c0.1,0,0.1,0,0.2,0c0.3-0.1,0.5-0.5,0.4-0.8l-1-3.3c0.1,0,0.3,0,0.4,0c1.9,0,3.5,1.6,3.5,3.5S28.2,24.7,26.3,24.7z"/>
	<path fill="#818181" d="M29.5,13.3c0.1,0,0.2,0,0.3-0.1c0-0.9-0.3-2.2-1.1-3.5c-0.2,0.4-0.4,0.9-0.4,1.5
		C28.3,12.4,28.9,13.3,29.5,13.3z"/>
</g>
</svg>
