<?xml version="1.0" encoding="utf-8"?>
<!-- Generator: Adobe Illustrator 16.0.3, SVG Export Plug-In . SVG Version: 6.00 Build 0)  -->
<!DOCTYPE svg PUBLIC "-//W3C//DTD SVG 1.1//EN" "http://www.w3.org/Graphics/SVG/1.1/DTD/svg11.dtd">
<svg version="1.1" id="Layer_1" xmlns="http://www.w3.org/2000/svg" xmlns:xlink="http://www.w3.org/1999/xlink" x="0px" y="0px"
	 width="32px" height="32px" viewBox="0 0 32 32" enable-background="new 0 0 32 32" xml:space="preserve">
<g>
	<path fill="#818181" d="M7.4,22.4c0,0.1,0,0.1,0,0.2c0,1.6,1.3,2.9,2.9,2.9c1.6,0,2.9-1.3,2.9-2.9c0-0.1,0-0.1,0-0.2
		c-0.1-1.5-1.4-2.7-2.9-2.7C8.7,19.8,7.5,21,7.4,22.4z M8.6,22.7c0-0.1,0-0.1,0-0.2c0.1-0.8,0.8-1.4,1.6-1.4c0.8,0,1.5,0.6,1.6,1.4
		c0,0.1,0,0.1,0,0.2c0,0.9-0.7,1.6-1.6,1.6C9.4,24.3,8.6,23.6,8.6,22.7z"/>
	<path fill="#818181" d="M22.2,22.4c0,0.1,0,0.1,0,0.2c0,1.6,1.3,2.9,2.9,2.9c1.6,0,2.9-1.3,2.9-2.9c0-0.1,0-0.1,0-0.2
		c-0.1-1.5-1.4-2.7-2.9-2.7C23.5,19.8,22.3,21,22.2,22.4z M23.4,22.7c0-0.1,0-0.1,0-0.2c0.1-0.8,0.8-1.4,1.6-1.4
		c0.8,0,1.5,0.6,1.6,1.4c0,0.1,0,0.1,0,0.2c0,0.9-0.7,1.6-1.6,1.6C24.1,24.3,23.4,23.6,23.4,22.7z"/>
	<path fill="#818181" d="M31.1,21v-3.8c0-0.4-2.4-1-2.7-1l-2.7-4.7h-4.8c-0.4,0-0.6,0.3-0.6,0.7v10.2c0,0.4,0.3,0.7,0.6,0.7h0.6
		c0,0,0-0.1,0-0.1c0-2.1,1.7-3.8,3.7-3.8c2,0,3.7,1.7,3.7,3.8c0,0,0,0.1,0,0.1h2.3c0.4,0,0.6-0.3,0.6-0.6v-0.7
		C31.7,21.3,31.4,21,31.1,21z M21.5,16.1c-0.2,0-0.3-0.1-0.3-0.3v-3.5c0-0.2,0.1-0.3,0.3-0.3h3.7l2.3,4.1H21.5z"/>
	<path fill="#818181" d="M27.7,7.1h-8.4V6.8c0-0.2-0.1-0.3-0.3-0.3h-7c-0.2,0-0.3,0.1-0.3,0.3v0.3H1.1c-0.4,0-0.7,0.3-0.7,0.6
		c0,0,0,11.7,0,12.2C1.3,21.8,3.8,23,6,23h0.6c0,0,0-0.1,0-0.1c0-2.1,1.7-3.8,3.7-3.8c2,0,3.7,1.7,3.7,3.8c0,0,0,0.1,0,0.1
		c2.7,0,4.9,0,4.9,0c0.4,0,0.7-0.3,0.7-0.6V11.1h10.9c0.4,0,0.6-0.3,0.6-0.6V9.6C31.1,9.3,28.1,7.1,27.7,7.1z M12.7,13.6
		c0,0.2-0.1,0.3-0.3,0.3H7.9c-0.2,0-0.3-0.1-0.3-0.3V10c0-0.2,0.1-0.3,0.3-0.3h4.5c0.2,0,0.3,0.1,0.3,0.3V13.6z"/>
</g>
</svg>
