<?xml version="1.0" encoding="utf-8"?>
<!-- Generator: Adobe Illustrator 16.0.3, SVG Export Plug-In . SVG Version: 6.00 Build 0)  -->
<!DOCTYPE svg PUBLIC "-//W3C//DTD SVG 1.1//EN" "http://www.w3.org/Graphics/SVG/1.1/DTD/svg11.dtd">
<svg version="1.1" id="Layer_1" xmlns="http://www.w3.org/2000/svg" xmlns:xlink="http://www.w3.org/1999/xlink" x="0px" y="0px"
	 width="32px" height="32px" viewBox="0 0 32 32" enable-background="new 0 0 32 32" xml:space="preserve">
<g>
	<path fill="#818181" d="M31.409,16.427c-0.042-0.256-0.079-0.535-0.135-0.792c-0.052-0.248-0.103-0.959-0.215-1.144
		c-0.115-0.188-0.461-0.361-0.739-0.47c-0.859-0.337-1.944-0.528-2.902-0.712c-1.136-0.219-2.342-0.458-3.603-0.592
		c-0.168-0.018-0.347,0.007-0.506-0.016c-3.194-2.164-5.169-3.306-5.169-3.306c-0.008,0.001-0.013,0.002-0.021,0.004
		c-0.138-0.071-0.283-0.132-0.444-0.176c-0.788-0.219-1.746-0.175-2.809-0.175c-1.928,0-3.793-0.113-5.819-0.028
		C7.421,9.09,5.749,9.109,4.167,9.357C3.854,9.406,3.502,9.421,3.524,9.771c-1.381,0.878-2.619,2.722-2.619,2.722
		c-0.095,0.133-0.197,0.24-0.284,0.374c-0.002,0-0.002-0.001-0.002,0.001c-0.011,0.016-0.024,0.028-0.035,0.044
		c0,0.003-0.003,0.007-0.006,0.011c-0.011,0.015-0.019,0.031-0.027,0.045c-0.002,0.005-0.005,0.009-0.008,0.014
		c-0.011,0.015-0.016,0.029-0.024,0.043c-0.003,0.006-0.005,0.011-0.011,0.018c-0.005,0.013-0.014,0.027-0.019,0.042
		c-0.003,0.006-0.005,0.013-0.008,0.019c-0.008,0.014-0.013,0.028-0.019,0.041c-0.002,0.008-0.005,0.015-0.008,0.021
		c-0.005,0.014-0.008,0.029-0.014,0.043c-0.002,0.007-0.005,0.014-0.005,0.021c-0.005,0.015-0.008,0.03-0.013,0.045
		c0,0.006-0.003,0.013-0.003,0.02c-0.005,0.022-0.011,0.044-0.014,0.067c-0.011,0.078-0.013,0.158-0.013,0.238
		c0.002,0.241,0.041,0.489,0.041,0.729c0.002,0.308,0.024,1.032,0.029,1.34c-0.175,0.092-0.354,0.104-0.43,0.295
		C0.003,16.043,0,16.13,0,16.222c0,0.168,0.038,0.352,0.06,0.524c0.035,0.255,0.073,0.519,0.157,0.698
		c0.067,0.142,0.206,0.229,0.243,0.337c0,0-0.089,0.3,0.176,0.595c0.005,0.008,0.013,0.013,0.021,0.02
		c0.002,0.002,0.002,0.003,0.005,0.004c0.008,0.007,0.016,0.014,0.024,0.02c0.002,0,0.002,0.003,0.005,0.003
		c0.008,0.005,0.019,0.011,0.03,0.016c0,0.002,0.002,0.003,0.002,0.003c0.011,0.006,0.024,0.011,0.035,0.017
		c0.003,0.002,0.005,0.002,0.008,0.005c0.014,0.006,0.027,0.011,0.041,0.017c0.002,0,0.002,0,0.005,0
		c0.014,0.005,0.027,0.011,0.041,0.016c0.005,0,0.005,0.002,0.008,0.003c0.016,0.006,0.032,0.01,0.048,0.014
		c0.003,0.003,0.008,0.003,0.011,0.003c0.017,0.005,0.033,0.011,0.052,0.015c0,0,0,0,0,0.001c0.019,0.004,0.038,0.009,0.057,0.014
		c0.002,0,0.008,0.001,0.011,0.003c0.019,0.003,0.038,0.008,0.06,0.012c0.002,0.002,0.005,0.002,0.008,0.002
		c0.019,0.005,0.038,0.008,0.057,0.012c0.002,0.002,0.005,0.002,0.008,0.002c0.019,0.004,0.041,0.008,0.063,0.011
		c0.005,0.001,0.008,0.002,0.013,0.002c0.021,0.005,0.043,0.009,0.065,0.011c0,0.002,0.003,0.002,0.003,0.002
		c0.021,0.004,0.043,0.007,0.067,0.01c0.002,0.001,0.005,0.002,0.011,0.002c0.021,0.003,0.046,0.007,0.067,0.01
		c0.003,0.001,0.008,0.001,0.011,0.001c0.024,0.003,0.046,0.007,0.07,0.01v0.001c0.024,0.003,0.049,0.006,0.073,0.009
		c0.005,0,0.008,0,0.014,0.001c0.021,0.003,0.046,0.006,0.07,0.01c0.002,0,0.005,0,0.005,0c0.024,0.003,0.046,0.005,0.07,0.008
		c0.003,0,0.006,0,0.008,0c0.024,0.003,0.049,0.006,0.07,0.007c0.005,0.001,0.008,0.001,0.011,0.001
		c0.049,0.006,0.097,0.01,0.146,0.014c0.003,0,0.005,0,0.008,0c0.024,0.003,0.046,0.006,0.07,0.007c0.003,0,0.006,0,0.008,0
		c0.046,0.004,0.092,0.007,0.138,0.011c0.003,0,0.005,0.002,0.008,0.002c0.043,0.002,0.089,0.005,0.13,0.008
		c0.002,0,0.002,0,0.005,0c0.019,0.001,0.041,0.003,0.059,0.004c0.003,0,0.003,0,0.006,0c0.041,0.003,0.078,0.004,0.113,0.007H2.56
		c0.019,0.001,0.035,0.003,0.051,0.003c0,0,0,0.001,0.002,0.001c0.012,0.002,0.022,0.002,0.034,0.003
		c0.001-0.003,0.007-0.008,0.007-0.034c-0.002-0.032,0.003-0.1-0.005-0.24c-0.051-1.008,0.481-1.898,1.284-2.415
		c0.465-0.298,1.019-0.473,1.605-0.473c0.759,0,1.454,0.295,1.967,0.777c0.565,0.527,0.919,1.276,0.919,2.11
		c0,0.275-0.038,0.543-0.111,0.797c-0.013,0.048-0.03,0.095-0.046,0.141c0,0.003,0.003,0.007,0.003,0.007h14.306
		c0,0,0,0.004,0.001,0.009l0.443,0.002c0-0.002-0.001-0.011-0.003-0.011c-0.119-0.268-0.185-0.604-0.185-0.938
		c0-1.37,1.112-2.479,2.482-2.479s2.48,1.112,2.48,2.482c0,0.341-0.067,0.666-0.191,0.96h0.166l3.272,0.142
		c0.09,0,0.166-0.07,0.166-0.159V18.74c0.241-0.058,0.471-0.3,0.471-0.588c0-0.086,0.043-0.285,0.064-0.314
		c0.084-0.109,0.102-0.915,0.108-1.088C31.757,16.591,31.599,16.491,31.409,16.427z M11.668,12.705
		c-0.1,0.147-0.492,0.092-0.767,0.081c-1.77-0.081-3.439-0.139-5.134-0.188c-0.262-0.008-0.521-0.019-0.646-0.137
		c-0.022-0.022-0.041-0.048-0.054-0.078c-0.081-0.196,0.073-0.468,0.148-0.646c0.17-0.392,0.392-0.79,0.579-1.115
		c0.105-0.184,0.173-0.372,0.308-0.537c0.294-0.357,0.789-0.35,1.478-0.35c1.157,0,2.445-0.012,3.213-0.013
		c0.181,0,0.492-0.038,0.631,0c0.046,0.012,0.083,0.032,0.111,0.058c0.157,0.144,0.109,0.478,0.119,0.789
		c0.016,0.531,0.009,1.005,0.027,1.438C11.692,12.266,11.735,12.603,11.668,12.705z M14.229,14.151h-1.105
		c-0.122,0-0.219-0.075-0.219-0.175c0-0.099,0.097-0.173,0.219-0.173h1.105c0.122,0,0.22,0.075,0.22,0.173
		C14.449,14.076,14.35,14.151,14.229,14.151z M20.136,13.228c-2.032-0.069-4.254-0.229-6.411-0.282
		c-0.17-0.004-0.672,0.006-0.803-0.082c-0.007-0.004-0.014-0.008-0.018-0.013c-0.056-0.056-0.087-0.239-0.109-0.418
		c-0.099-0.532-0.221-1.425-0.285-1.824c-0.003-0.019-0.006-0.038-0.01-0.056c-0.042-0.253-0.146-0.526-0.041-0.767
		c0.197-0.13,0.528-0.08,0.82-0.08c0.317,0,0.611,0.01,0.82,0.013c0.693,0.01,1.45,0.002,2.056,0.054
		c0.614,0.052,1.128,0.182,1.599,0.443c0.434,0.242,0.832,0.552,1.224,0.846c0.39,0.294,0.763,0.612,1.129,0.941h0.001l1.271,1.272
		L20.136,13.228z"/>
	<polygon fill="#818181" points="2.659,18.727 2.647,18.726 2.647,18.727 	"/>
	<polygon fill="#818181" points="2.646,18.732 2.647,18.727 2.646,18.727 	"/>
	<rect x="27.599" y="19.419" fill="#818181" width="0.002" height="0.003"/>
	<path fill="#818181" d="M5.479,16.07c-1.294,0-2.352,1.004-2.444,2.274c-0.004,0.061-0.009,0.118-0.009,0.18
		c0,1.354,1.098,2.451,2.453,2.451c1.354,0,2.453-1.098,2.453-2.451c0-0.062-0.005-0.119-0.009-0.18
		C7.831,17.074,6.773,16.07,5.479,16.07z M5.479,19.926c-0.775,0-1.403-0.629-1.403-1.401c0-0.063,0.005-0.12,0.013-0.18
		c0.088-0.69,0.675-1.224,1.39-1.224c0.713,0,1.301,0.533,1.39,1.224c0.008,0.06,0.012,0.117,0.012,0.18
		C6.881,19.297,6.254,19.926,5.479,19.926z"/>
	<path fill="#818181" d="M25.327,16.388c-1.127,0-2.047,0.874-2.127,1.979c-0.005,0.052-0.008,0.103-0.008,0.157
		c0,1.178,0.956,2.135,2.135,2.135s2.135-0.957,2.135-2.135c0-0.055-0.002-0.105-0.008-0.157
		C27.374,17.262,26.454,16.388,25.327,16.388z M25.327,19.744c-0.676,0-1.222-0.547-1.222-1.22c0-0.055,0.006-0.105,0.011-0.157
		c0.077-0.6,0.589-1.064,1.211-1.064s1.133,0.465,1.211,1.064c0.005,0.052,0.011,0.103,0.011,0.157
		C26.549,19.197,26.002,19.744,25.327,19.744z"/>
</g>
</svg>
