<?xml version="1.0" encoding="utf-8"?>
<!-- Generator: Adobe Illustrator 16.0.0, SVG Export Plug-In . SVG Version: 6.00 Build 0)  -->
<!DOCTYPE svg PUBLIC "-//W3C//DTD SVG 1.1//EN" "http://www.w3.org/Graphics/SVG/1.1/DTD/svg11.dtd">
<svg version="1.1" id="Layer_1" xmlns="http://www.w3.org/2000/svg" xmlns:xlink="http://www.w3.org/1999/xlink" x="0px" y="0px"
	 width="32px" height="32px" viewBox="54.9 54.9 32 32" enable-background="new 54.9 54.9 32 32" xml:space="preserve">
<g id="insérer" display="none">
	<path display="inline" fill="#00529C" d="M89.2,44.8H52.5c-3.2,0-5.8,2.6-5.8,5.8c0,3.2,2.6,5.8,5.8,5.8h36.7
		c3.2,0,5.8-2.6,5.8-5.8C94.9,47.3,92.4,44.8,89.2,44.8z"/>
	<path display="inline" fill="#00529C" d="M76.6,68.9V32.2c0-3.2-2.6-5.8-5.8-5.8c-3.2,0-5.8,2.6-5.8,5.8v36.7
		c0,3.2,2.6,5.8,5.8,5.8C74,74.6,76.6,72,76.6,68.9z"/>
</g>
<g id="connexion" display="none">
	<g display="inline">
		<g>
			<path fill="#00529C" d="M80.4,42.9v-8.2c0-4.6-4.3-8.4-9.6-8.4c-5.3,0-9.6,3.8-9.6,8.4v8.2c-5.6,2.1-9.6,7.4-9.6,13.6v2
				c0,8.1,6.7,14.6,15,14.6H75c8.3,0,15-6.5,15-14.6v-2C90,50.3,86,45,80.4,42.9z M65.7,35.1c0-2.5,2.3-4.5,5.2-4.5
				c2.9,0,5.2,2,5.2,4.5V42c-0.3,0-0.7,0-1,0h-8.3c-0.3,0-0.7,0-1,0L65.7,35.1L65.7,35.1z M82.3,62.4c0,1.6-1.6,3-3.6,3H63
				c-2,0-3.6-1.3-3.6-3v-9.9c0-1.6,1.6-3,3.6-3h15.7c2,0,3.6,1.3,3.6,3V62.4L82.3,62.4z"/>
			<path fill="#00529C" d="M74,54.6c0-1.7-1.4-3.2-3.2-3.2c-1.8,0-3.2,1.4-3.2,3.2c0,1.1,0.6,2.1,1.5,2.7v5l0,0l0,0l0,0l0,0
				c0,0.6,0.8,1,1.7,1c0.9,0,1.7-0.5,1.7-1l0,0v-5.1C73.5,56.7,74,55.8,74,54.6z"/>
		</g>
	</g>
</g>
<g>
	<circle fill="#818181" cx="58.7" cy="60.1" r="3.8"/>
	<circle fill="#818181" cx="58.7" cy="70.9" r="3.8"/>
	<circle fill="#818181" cx="58.7" cy="81.6" r="3.8"/>
	<path fill="#818181" d="M83,56.2H68.4c-2.1,0-3.8,1.7-3.8,3.8c0,2.1,1.7,3.8,3.8,3.8H83c2.1,0,3.8-1.7,3.8-3.8
		C86.8,58,85.1,56.2,83,56.2z"/>
	<path fill="#818181" d="M83,67.1H68.4c-2.1,0-3.8,1.7-3.8,3.8s1.7,3.8,3.8,3.8H83c2.1,0,3.8-1.7,3.8-3.8S85.1,67.1,83,67.1z"/>
	<path fill="#818181" d="M83,77.8H68.4c-2.1,0-3.8,1.7-3.8,3.8c0,2.1,1.7,3.8,3.8,3.8H83c2.1,0,3.8-1.7,3.8-3.8
		C86.8,79.5,85.1,77.8,83,77.8z"/>
</g>
<g id="recherche_1_" display="none">
	<path display="inline" fill="#00529C" d="M93.2,67.3L82.6,56.5l-0.9-0.9c1.7-2.9,2.7-6.2,2.7-9.8c0-10.5-8.5-19-19-19
		s-19,8.5-19,19s8.5,19,19,19c3.8,0,7.3-1.1,10.3-3l0.7,0.8L87,73.4c1.7,1.7,4.4,1.7,6.1,0.1C94.8,71.8,94.9,69,93.2,67.3z
		 M54.2,45.8c0-6.2,5-11.2,11.2-11.2c6.2,0,11.2,5,11.2,11.2c0,6.2-5,11.2-11.2,11.2C59.2,57,54.2,52,54.2,45.8z"/>
	
		<text transform="matrix(1.083 0 0 1 0.457 108.4751)" display="inline" fill="#00529C" font-family="'ArialMT'" font-size="25.9066">RECHERCHE</text>
	<path display="inline" fill="#00529C" d="M93.2,67.3L82.6,56.5l-0.9-0.9c1.7-2.9,2.7-6.2,2.7-9.8c0-10.5-8.5-19-19-19
		s-19,8.5-19,19s8.5,19,19,19c3.8,0,7.3-1.1,10.3-3l0.7,0.8L87,73.4c1.7,1.7,4.4,1.7,6.1,0.1C94.8,71.8,94.9,69,93.2,67.3z
		 M54.2,45.8c0-6.2,5-11.2,11.2-11.2c6.2,0,11.2,5,11.2,11.2c0,6.2-5,11.2-11.2,11.2C59.2,57,54.2,52,54.2,45.8z"/>
</g>
</svg>
