<?xml version="1.0" encoding="utf-8"?>
<!-- Generator: Adobe Illustrator 16.0.0, SVG Export Plug-In . SVG Version: 6.00 Build 0)  -->
<!DOCTYPE svg PUBLIC "-//W3C//DTD SVG 1.1//EN" "http://www.w3.org/Graphics/SVG/1.1/DTD/svg11.dtd">
<svg version="1.1" id="Layer_1" xmlns="http://www.w3.org/2000/svg" xmlns:xlink="http://www.w3.org/1999/xlink" x="0px" y="0px"
	 width="32px" height="32px" viewBox="55 55 32 32" enable-background="new 55 55 32 32" xml:space="preserve">
<g>
	<path fill="#818181" d="M73.6,71.1c0.7-0.8,1-1.8,1.2-2.9c0.2-2.3,0.4-4.5-0.1-6.8c-0.6-3.1-3.4-4.6-6.1-4.3
		c-3.2,0.4-4.8,2-5.2,5.2c-0.2,2.3-0.3,4.6,0.3,6.8c0.2,0.8,0.7,1.6,1.2,2.3c0.3,0.4,0.5,0.8,0.5,1.3c0,0.4,0,0.9,0,1.1
		c-2.2,0.8-4.2,1.5-6.2,2.4c-0.8,0.3-1.5,0.8-2.2,1.3c-1,0.7-1.6,1.5-1.9,2.7c0,1.2,0,2.3,0,3.5c6,0,12,0,18,0
		c-1.5-1.6-2.4-3.7-2.4-6.1C70.6,75,71.8,72.7,73.6,71.1z"/>
	<path fill="#818181" d="M79.7,70.4c-4,0-7.3,3.3-7.3,7.3c0,4,3.3,7.3,7.3,7.3s7.3-3.3,7.3-7.3S83.7,70.4,79.7,70.4z M78.2,81.5
		l-2.9-2.8l1.1-1.1l1.8,1.7l4.8-5.6l1.1,1.1L78.2,81.5z"/>
</g>
</svg>
