<?xml version="1.0" encoding="utf-8"?>
<!-- Generator: Adobe Illustrator 16.0.0, SVG Export Plug-In . SVG Version: 6.00 Build 0)  -->
<!DOCTYPE svg PUBLIC "-//W3C//DTD SVG 1.1//EN" "http://www.w3.org/Graphics/SVG/1.1/DTD/svg11.dtd">
<svg version="1.1" id="Layer_1" xmlns="http://www.w3.org/2000/svg" xmlns:xlink="http://www.w3.org/1999/xlink" x="0px" y="0px"
	 width="32px" height="32px" viewBox="55 55 32 32" enable-background="new 55 55 32 32" xml:space="preserve">
<path fill="#818181" d="M84.8,79.1c-0.8-0.6-1.6-1.1-2.5-1.5c-2.3-0.9-4.6-1.8-7-2.7c0-0.3,0-0.8,0-1.3c0-0.6,0.2-1,0.6-1.5
	c0.6-0.8,1.2-1.6,1.4-2.6c0.7-2.5,0.6-5.1,0.3-7.7c-0.3-3-1.7-4.8-4.3-5.5c-0.7-0.2-1.4-0.3-2.1-0.3c-0.1,0-0.1,0-0.2,0
	c-0.1,0-0.1,0-0.2,0c-0.7,0-1.4,0.1-2.1,0.3c-2.6,0.7-3.9,2.5-4.3,5.5c-0.3,2.6-0.3,5.2,0.3,7.7c0.2,0.9,0.8,1.8,1.4,2.6
	c0.4,0.5,0.6,0.9,0.6,1.5c0,0.5,0,1,0,1.3c-2.5,0.9-4.8,1.8-7,2.7c-0.9,0.4-1.7,1-2.5,1.5c-1.1,0.7-1.8,1.7-2.2,3c0,1.3,0,2.6,0,4
	c3.9,0,7.7,0,11.6,0c2.9,0,5.9,0,8.8,0c3.9,0,7.7,0,11.6,0c0-1.3,0-2.6,0-4C86.6,80.8,85.9,79.8,84.8,79.1z"/>
</svg>
