<?xml version="1.0" encoding="utf-8"?>
<!-- Generator: Adobe Illustrator 16.0.3, SVG Export Plug-In . SVG Version: 6.00 Build 0)  -->
<!DOCTYPE svg PUBLIC "-//W3C//DTD SVG 1.1//EN" "http://www.w3.org/Graphics/SVG/1.1/DTD/svg11.dtd">
<svg version="1.1" id="Layer_1" xmlns="http://www.w3.org/2000/svg" xmlns:xlink="http://www.w3.org/1999/xlink" x="0px" y="0px"
	 width="32px" height="32px" viewBox="0 0 32 32" enable-background="new 0 0 32 32" xml:space="preserve">
<path fill="#818181" d="M30.512,27.856l-9.129-9.132c1.323-1.854,2.109-4.125,2.109-6.578c0-6.276-5.088-11.361-11.364-11.361
	c-6.275,0-11.364,5.085-11.364,11.361S5.853,23.51,12.128,23.51c2.453,0,4.719-0.783,6.575-2.105l9.131,9.129
	c0.742,0.737,1.937,0.737,2.678,0C31.252,29.792,31.252,28.593,30.512,27.856z M18.634,15.975c-0.657,1.106-1.573,2.022-2.68,2.677
	c-1.125,0.666-2.425,1.074-3.825,1.074c-4.186,0-7.578-3.393-7.578-7.579c0-4.18,3.392-7.573,7.578-7.573
	c4.183,0,7.575,3.393,7.575,7.573C19.703,13.549,19.296,14.846,18.634,15.975z"/>
</svg>
