<?xml version="1.0" encoding="utf-8"?>
<!-- Generator: Adobe Illustrator 16.0.3, SVG Export Plug-In . SVG Version: 6.00 Build 0)  -->
<!DOCTYPE svg PUBLIC "-//W3C//DTD SVG 1.1//EN" "http://www.w3.org/Graphics/SVG/1.1/DTD/svg11.dtd">
<svg version="1.1" id="Layer_1" xmlns="http://www.w3.org/2000/svg" xmlns:xlink="http://www.w3.org/1999/xlink" x="0px" y="0px"
	 width="32px" height="32px" viewBox="0 0 32 32" enable-background="new 0 0 32 32" xml:space="preserve">
<g>
	<path fill="#818181" d="M31.777,19.53c-0.108-0.22-0.328-0.438-0.658-0.438H30.13v-1.099c0-0.33-0.109-0.659-0.22-0.879
		l-2.965-5.493c-0.111-0.22-0.44-0.439-0.66-0.439h-5.493c-0.22,0-0.438,0.219-0.438,0.439v7.471h-0.55V6.568
		c0-0.221-0.22-0.44-0.439-0.44H2.791c-0.22,0-0.439,0.219-0.439,0.44v12.634H0.814c-0.331,0-0.55,0.22-0.66,0.439
		c-0.11,0.438-0.11,0.878,0,1.317c0.11,0.33,0.329,0.44,0.66,0.44h1.428v1.428c0,0.22,0.22,0.22,0.33,0.11l0.439-0.439
		c0.219-0.221,0.329-0.44,0.329-0.77v-0.439h0.55c0-0.879,0.439-1.647,1.098-2.197c0.55-0.439,1.209-0.769,1.978-0.769
		s1.428,0.329,1.977,0.769c0.66,0.55,0.989,1.318,1.099,2.197h11.08v1.429c0,0.22,0.221,0.22,0.33,0.109l0.33-0.329
		c0.22-0.221,0.329-0.55,0.329-0.77v-0.329h0.439c0-0.88,0.439-1.648,1.1-2.197c0.55-0.44,1.208-0.77,1.977-0.77
		c0.77,0,1.428,0.329,1.978,0.77c0.658,0.549,0.989,1.317,1.099,2.197h0.549h0.55h1.429c0.328,0,0.548-0.11,0.659-0.44
		C31.889,20.41,31.889,19.972,31.777,19.53z M26.834,16.564h-0.987c-0.331,0-0.55-0.109-0.66-0.438v-0.22
		c0-0.11-0.109-0.11-0.221-0.11H22.77c-0.22,0-0.439-0.22-0.439-0.44v-1.758c0-0.219,0.22-0.439,0.439-0.439h2.417
		c0.329,0,0.549,0.11,0.66,0.439l0.549,0.989l0.769,1.539C27.164,16.345,27.054,16.564,26.834,16.564z"/>
	<path fill="#818181" d="M6.856,19.202c-1.319,0-2.417,0.989-2.527,2.197c0,0.108,0,0.108,0,0.22c0,1.318,1.099,2.526,2.527,2.526
		c1.318,0,2.526-1.099,2.526-2.526c0-0.111,0-0.111,0-0.22C9.273,20.191,8.175,19.202,6.856,19.202z M6.856,23.047
		c-0.77,0-1.429-0.659-1.429-1.428c0-0.111,0-0.111,0-0.22c0.11-0.659,0.659-1.208,1.429-1.208c0.769,0,1.318,0.549,1.428,1.208
		c0,0.108,0,0.108,0,0.22C8.284,22.388,7.625,23.047,6.856,23.047z"/>
	<path fill="#818181" d="M25.626,19.202c-1.318,0-2.417,0.989-2.526,2.197c0,0.108,0,0.108,0,0.22c0,1.318,1.1,2.526,2.526,2.526
		c1.428,0,2.527-1.099,2.527-2.526c0-0.111,0-0.111,0-0.22C27.934,20.191,26.945,19.202,25.626,19.202z M25.626,23.047
		c-0.769,0-1.427-0.659-1.427-1.428c0-0.111,0-0.111,0-0.22c0.108-0.659,0.658-1.208,1.427-1.208c0.77,0,1.319,0.549,1.428,1.208
		c0,0.108,0,0.108,0,0.22C27.054,22.388,26.396,23.047,25.626,23.047z"/>
</g>
</svg>
