<?xml version="1.0" encoding="utf-8"?>
<!-- Generator: Adobe Illustrator 16.0.3, SVG Export Plug-In . SVG Version: 6.00 Build 0)  -->
<!DOCTYPE svg PUBLIC "-//W3C//DTD SVG 1.1//EN" "http://www.w3.org/Graphics/SVG/1.1/DTD/svg11.dtd">
<svg version="1.1" id="Layer_1" xmlns="http://www.w3.org/2000/svg" xmlns:xlink="http://www.w3.org/1999/xlink" x="0px" y="0px"
	 width="32px" height="32px" viewBox="0 0 32 32" enable-background="new 0 0 32 32" xml:space="preserve">
<g>
	<path fill="#818181" d="M11.5,5.8h-0.4l-0.1,0L10.8,6h-0.4L9.8,6L9.5,6.4L9.3,6.8L8.8,7L8.4,7.2L8.3,7.6L8.1,8.2L7.6,8.5L7.3,8.8
		l0,0.4l0,0.6l-0.5,0.5l-0.2,0.2l0,0.3l0.1,0.7L6.3,12l-0.2,0.3l0.1,0.3l0.2,0.7L6,13.9l-0.2,0.3l0.1,0.3l0.2,0.6l-0.3,0.6L5.7,16
		l0.1,0.3l0.3,0.6l-0.2,0.6l-0.1,0.3L6,18.1l0.3,0.6l-0.2,0.6l-0.1,0.3L6.3,20l0.4,0.5l-0.1,0.6l0,0.4l0.2,0.3l0.5,0.5l0,0.6l0,0.4
		l0.3,0.2l0.5,0.4l0.1,0.5l0.1,0.4L8.8,25l0.5,0.2l0.2,0.4l0.3,0.5h0.7l0.3,0l0.2,0.1l0.1,0h0.4c1.2,0,2.3-0.7,3.2-1.8
		c-0.9-0.7-1.7-1.6-2.3-2.5c-0.4,0.6-0.7,0.9-0.9,1c-0.6-0.2-2.3-2.6-2.3-6.9c0-4.3,1.7-6.7,2.3-6.9c0.2,0.1,0.6,0.4,0.9,1
		c0.6-1,1.4-1.8,2.3-2.5C13.8,6.4,12.7,5.8,11.5,5.8z"/>
	<path fill="#818181" d="M0.4,18.1L0.4,18.1l0,0.1c0.5,4.2,2.5,7.5,4.9,7.9l-0.2-0.4l-0.7-0.3L4,25.4L3.9,25l-0.2-0.7l-0.6-0.4
		l-0.3-0.2l0-0.4l0-0.7L2.4,22l-0.3-0.3l0-0.4l0.1-0.7l-0.4-0.6l-0.2-0.3l0.1-0.3l0.2-0.7l-0.4-0.6L1.3,18l0.1-0.3L1.7,17l-0.3-0.6
		L1.2,16l0.1-0.3l0.3-0.6l-0.2-0.7l-0.1-0.3l0.2-0.3l0.4-0.6l-0.2-0.7l-0.1-0.3l0.2-0.3l0.4-0.6l-0.1-0.7l0-0.4L2.4,10l0.5-0.5
		l0-0.7l0-0.4l0.3-0.2l0.6-0.4L3.9,7L4,6.6l0.4-0.1l0.7-0.3l0.2-0.4C2.5,6.3,0.2,10.7,0.2,16C0.2,16.7,0.3,17.4,0.4,18.1z"/>
	<polygon fill="#818181" points="3.6,22.2 3.6,23.2 4.4,23.8 4.7,24.8 5.6,25.2 6.1,26.1 7.1,26.1 6.9,25.8 6.2,25.5 5.9,25.4 
		5.8,25 5.6,24.3 5,23.9 4.7,23.6 4.7,23.3 4.7,22.6 4.2,22 4,21.8 4,21.4 4.1,20.7 3.7,20.2 3.5,19.9 3.5,19.5 3.7,18.9 3.3,18.3 
		3.2,18 3.3,17.6 3.5,17 3.2,16.3 3.1,16 3.2,15.7 3.5,15.1 3.3,14.4 3.2,14.1 3.3,13.8 3.7,13.2 3.5,12.5 3.5,12.1 3.7,11.8 
		4.1,11.3 4,10.6 4,10.2 4.2,10 4.7,9.5 4.7,8.7 4.7,8.4 5,8.2 5.6,7.7 5.8,7 5.9,6.6 6.2,6.5 6.9,6.2 7.1,6 6.1,6 5.6,6.8 4.7,7.2 
		4.4,8.2 3.6,8.8 3.6,9.8 2.9,10.5 3,11.5 2.4,12.3 2.6,13.3 2.1,14.1 2.5,15.1 2,16 2.5,16.9 2.1,17.9 2.6,18.7 2.4,19.7 3,20.5 
		2.9,21.5 	"/>
	<polygon fill="#818181" points="7.5,6.8 6.5,7.2 6.3,8.2 5.5,8.8 5.5,9.8 4.8,10.5 4.9,11.5 4.3,12.3 4.5,13.3 4,14.1 4.3,15.1 
		3.9,16 4.3,16.9 4,17.9 4.5,18.7 4.3,19.7 4.9,20.5 4.8,21.5 5.5,22.2 5.5,23.2 6.3,23.8 6.5,24.8 7.5,25.2 8,26.1 8.9,26.1 
		8.8,25.8 8.1,25.5 7.7,25.4 7.6,25 7.5,24.3 6.9,23.9 6.6,23.6 6.6,23.3 6.5,22.6 6,22 5.8,21.8 5.8,21.4 5.9,20.7 5.5,20.2 
		5.3,19.9 5.4,19.5 5.5,18.9 5.2,18.3 5,18 5.1,17.6 5.3,17 5,16.3 4.9,16 5,15.7 5.3,15.1 5.1,14.4 5,14.1 5.2,13.8 5.5,13.2 
		5.4,12.5 5.3,12.1 5.5,11.8 5.9,11.3 5.8,10.6 5.8,10.2 6,10 6.5,9.5 6.6,8.7 6.6,8.4 6.9,8.2 7.5,7.7 7.6,7 7.7,6.6 8.1,6.5 
		8.8,6.2 8.9,6 8,6 	"/>
	<path fill="#818181" d="M27.2,7.4l-1.1-0.4l-0.9-0.7L24,6.2L23,5.7l-1.2,0.2l-1.2-0.3l-1.1,0.4l-1.2,0l-1,0.7L16.2,7l-0.8,0.9
		l-1.1,0.5l-0.6,1l-0.9,0.7l-0.4,1.1l-0.7,0.9l-0.1,1.2l-0.5,1.1l0.2,1.2l-0.3,1.2l0.4,1.1l0,1.2l0.7,1l0.3,1.2l0.9,0.8l0.5,1.1
		l1,0.6l0.7,0.9l1.1,0.4l0.9,0.7l1.2,0.1l1.1,0.5l1.2-0.2l1.2,0.3l1.1-0.4l1.2,0l1-0.7l1.1-0.3l0.8-0.9l1.1-0.5l0.6-1l0.9-0.7
		l0.4-1.1l0.7-0.9l0.1-1.2l0.5-1.1l-0.2-1.2l0.3-1.2l-0.4-1.1l0-1.2l-0.7-1l-0.3-1.2L29.5,10L29,8.9l-1-0.6L27.2,7.4z M21.2,22.8
		c-3.7-0.1-6.6-3.3-6.5-7c0.1-3.7,3.3-6.6,7-6.5c3.7,0.1,6.6,3.3,6.5,7C28,20,24.9,22.9,21.2,22.8z"/>
	<path fill="#818181" d="M21.6,10c-3.3-0.1-6.1,2.5-6.2,5.8c-0.1,3.3,2.5,6.1,5.8,6.2c3.3,0.1,6.1-2.5,6.2-5.8
		C27.5,12.9,24.9,10.1,21.6,10z M24.9,12c0.3,0.1,0.7,0.5,0.8,0.8c0.1,0.3-0.3,0.9-0.9,1.3c-0.6,0.4-1.3,0.9-1.5,1
		c-0.2,0.2-0.6,0.1-0.8-0.1c-0.2-0.2-0.2-0.6-0.1-0.8c0.2-0.2,0.7-0.9,1.1-1.4C23.9,12.3,24.5,11.9,24.9,12z M20.6,16.6
		c0.1-0.1,0.2-0.1,0.3,0c0.1,0.1,0.1,0.2,0,0.3c-0.1,0.1-0.2,0.1-0.3,0C20.6,16.9,20.5,16.7,20.6,16.6z M20.4,15.9
		c-0.1,0-0.2-0.2-0.1-0.3c0-0.1,0.2-0.2,0.3-0.1c0.1,0,0.2,0.2,0.1,0.3C20.7,15.9,20.5,15.9,20.4,15.9z M20.9,16
		c0-0.3,0.2-0.5,0.5-0.5c0.3,0,0.5,0.3,0.5,0.5c0,0.3-0.3,0.5-0.5,0.5C21.1,16.5,20.9,16.3,20.9,16z M21.2,15c0-0.1,0.1-0.2,0.2-0.2
		c0.1,0,0.2,0.1,0.2,0.2c0,0.1-0.1,0.2-0.2,0.2C21.3,15.3,21.2,15.2,21.2,15z M21.8,16.6c0.1-0.1,0.3,0,0.3,0.1
		c0.1,0.1,0,0.3-0.1,0.3c-0.1,0.1-0.3,0-0.3-0.1C21.7,16.8,21.7,16.7,21.8,16.6z M22.1,15.8c0-0.1,0-0.3,0.2-0.3
		c0.1,0,0.3,0,0.3,0.2c0,0.1,0,0.3-0.2,0.3C22.3,16,22.1,15.9,22.1,15.8z M21,10.7c0.3-0.1,0.8-0.1,1.1,0c0.3,0.2,0.4,0.9,0.3,1.6
		c-0.1,0.7-0.3,1.5-0.4,1.8c-0.1,0.3-0.3,0.5-0.7,0.5c-0.3,0-0.6-0.2-0.6-0.5c0-0.3-0.1-1.1-0.2-1.8C20.5,11.6,20.7,10.9,21,10.7z
		 M17.4,12.5c0.1-0.3,0.5-0.7,0.8-0.8c0.3-0.1,0.9,0.3,1.3,0.9c0.4,0.6,0.9,1.3,1,1.5c0.2,0.2,0.1,0.6-0.1,0.8s-0.6,0.2-0.8,0.1
		c-0.2-0.2-0.9-0.7-1.4-1.1C17.7,13.5,17.3,12.9,17.4,12.5z M16.2,16.4c-0.1-0.3-0.1-0.8,0-1.1c0.2-0.3,0.9-0.4,1.6-0.3
		c0.7,0.1,1.5,0.3,1.8,0.4c0.3,0.1,0.5,0.4,0.5,0.7c0,0.3-0.2,0.6-0.5,0.6c-0.3,0-1.1,0.1-1.8,0.2S16.3,16.7,16.2,16.4z M18,20
		c-0.3-0.1-0.7-0.5-0.8-0.8c-0.1-0.3,0.3-0.9,0.9-1.3c0.6-0.4,1.3-0.9,1.5-1c0.2-0.2,0.6-0.1,0.8,0.1c0.2,0.2,0.2,0.6,0.1,0.8
		c-0.2,0.2-0.7,0.9-1.1,1.4C18.9,19.7,18.3,20.1,18,20z M21.8,21.3c-0.3,0.1-0.8,0.1-1.1,0c-0.3-0.2-0.4-0.9-0.3-1.6
		c0.1-0.7,0.3-1.5,0.4-1.8c0.1-0.3,0.3-0.5,0.7-0.5c0.3,0,0.6,0.2,0.6,0.5c0,0.3,0.1,1.1,0.2,1.8C22.3,20.4,22.1,21.1,21.8,21.3z
		 M25.4,19.5c-0.1,0.3-0.5,0.7-0.8,0.8s-0.9-0.3-1.3-0.9c-0.4-0.6-0.9-1.3-1-1.5c-0.2-0.2-0.1-0.6,0.1-0.8c0.2-0.2,0.6-0.2,0.8-0.1
		c0.2,0.2,0.9,0.7,1.4,1.1C25.1,18.5,25.5,19.1,25.4,19.5z M25,17.1c-0.7-0.1-1.5-0.3-1.8-0.4c-0.3-0.1-0.5-0.3-0.5-0.7
		c0-0.3,0.2-0.6,0.5-0.6c0.3,0,1.1-0.1,1.8-0.2c0.7-0.1,1.5,0.1,1.6,0.4c0.1,0.3,0.1,0.8,0,1.1C26.5,17.1,25.7,17.2,25,17.1z"/>
</g>
</svg>
